<svg width="406" height="406" viewBox="0 0 406 406" fill="none" xmlns="http://www.w3.org/2000/svg">
<mask id="path-1-outside-1_3_1074" maskUnits="userSpaceOnUse" x="9.15527e-05" y="0" width="406" height="406" fill="black">
<rect fill="white" x="9.15527e-05" width="406" height="406"/>
<path d="M79.7891 183.874C88.6366 183.495 97.0115 178.946 103.212 171.257C116.788 188.134 138.911 188.125 152.481 171.259C158.982 179.339 167.795 183.908 177.107 183.912H177.108C180.344 183.912 182.968 180.683 182.968 176.697C182.969 172.712 180.347 169.48 177.111 169.479C170.248 169.476 163.789 165.722 159.392 159.179C157.677 156.625 155.158 155.161 152.481 155.161C149.805 155.161 147.286 156.625 145.57 159.179C136.333 172.924 119.343 172.897 110.124 159.179C106.514 153.807 99.8903 153.836 96.3021 159.179C92.0436 165.517 86.0335 169.164 79.3813 169.449C76.147 169.588 73.6166 172.929 73.7299 176.912C73.8424 180.896 76.5525 184.009 79.7891 183.874Z"/>
<path d="M79.7883 142.169C88.6366 141.79 97.0122 137.241 103.213 129.552C113.471 142.285 129.175 145.831 142.449 138.25C145.385 136.573 146.661 132.283 145.299 128.668C143.938 125.052 140.456 123.482 137.518 125.157C128.058 130.561 116.793 127.402 110.124 117.476C106.515 112.105 99.8903 112.133 96.3036 117.476C92.0436 123.815 86.0343 127.462 79.3829 127.746C76.1486 127.885 73.6174 131.225 73.7307 135.209C73.8424 139.19 76.5884 142.295 79.7883 142.169Z"/>
<path d="M402.386 129.957C385.108 76.5493 345.932 39.5803 300.975 31.8799V25.0023C300.975 12.8701 292.962 3 283.111 3C273.26 3 265.246 12.8701 265.246 25.0023V31.8799C250.883 34.3403 237.034 39.765 224.176 47.9734H158.485C155.249 47.9734 152.626 51.2044 152.626 55.1898C152.626 59.1752 155.249 62.4062 158.485 62.4062H205.627C200.956 66.7707 195.984 72.1079 191.631 77.5462H60.9692C58.1692 77.5462 55.7607 79.9862 55.2201 83.3702L29.7175 243.062C29.0065 247.518 31.7791 251.671 35.4666 251.671H101.802V266.811H20.87C17.0021 266.811 14.0928 262.448 14.8396 257.78L45.064 68.5141C45.6289 64.9743 48.1655 62.4052 51.0944 62.4052H130.472C133.708 62.4052 136.331 59.1742 136.331 55.1889C136.331 51.2035 133.708 47.9725 130.472 47.9725H51.0944C42.5805 47.9725 35.208 55.4409 33.565 65.7296L3.34219 254.993C1.16801 268.594 9.63425 281.243 20.8708 281.243H101.803V298.197C101.803 302.182 104.425 305.413 107.662 305.413C110.899 305.413 113.521 302.182 113.521 298.197V281.243H138.62V298.197C138.62 302.182 141.243 305.413 144.479 305.413C147.716 305.413 150.339 302.182 150.339 298.197V281.243H265.246V301.625H208.676C198.825 301.625 190.811 311.495 190.811 323.629C190.811 333.496 196.112 341.866 203.391 344.647V380.998C203.391 393.13 211.405 403 221.256 403C231.106 403 239.12 393.13 239.12 380.998V345.631H324.641V380.998C324.641 393.13 332.655 403 342.506 403C352.356 403 360.371 393.13 360.371 380.998V329.728L396.873 254.872C399.258 249.981 399.993 244.195 398.97 238.649L392.435 197.717C391.811 193.807 388.729 191.258 385.554 192.029C382.379 192.797 380.311 196.591 380.936 200.502L384.336 221.795C380.068 220.967 375.665 222.166 372.276 224.729L359.448 144.395H371.976L375.426 166C376.051 169.909 379.132 172.458 382.306 171.688C385.481 170.919 387.549 167.125 386.925 163.215L383.919 144.395H394.417C400.453 144.396 404.626 136.884 402.386 129.957ZM300.975 281.243H342.333L332.394 301.625H300.975L300.975 281.243ZM349.371 266.811H300.975V251.671H356.753C354.194 256.921 351.94 261.544 349.371 266.811ZM262.121 129.963C267.4 65.4467 279.141 44.9483 283.066 44.7925H283.157C287.08 44.9474 298.822 65.4448 304.102 129.963C298.697 129.963 268.303 129.963 262.121 129.963ZM221.348 129.963C229.672 90.7685 245.812 61.775 264.816 50.2586C256.429 72.0078 252.258 106.132 250.351 129.963H221.348ZM176.55 129.963C189.274 94.7904 212.79 68.0561 240.572 54.6433C224.604 74.7414 214.644 102.755 209.262 129.963H176.55ZM315.872 129.963C313.961 106.095 309.787 71.9905 301.406 50.2577C320.41 61.774 336.549 90.7675 344.874 129.963H315.872ZM276.964 30.5358V25.0023C276.964 20.8283 279.721 17.4328 283.111 17.4328C286.5 17.4328 289.257 20.8283 289.257 25.0023V30.5358C285.361 30.3087 281.159 30.2933 276.964 30.5358ZM65.7878 91.9789H181.418C174.204 103.505 168.271 116.247 163.837 129.954C161.598 136.872 165.761 144.396 171.805 144.396H265.245V237.238H150.338V230.18C150.338 213.7 139.451 200.292 126.07 200.292C118.713 200.292 112.116 204.35 107.662 210.737C103.208 204.349 96.6107 200.292 89.2538 200.292C75.872 200.292 64.9863 213.7 64.9863 230.18V237.238H42.5906L65.7878 91.9789ZM101.802 237.238H76.7033V230.18C76.7033 221.658 82.3328 214.725 89.2522 214.725C96.1716 214.725 101.801 221.658 101.801 230.18L101.802 237.238ZM138.619 237.238H113.52V230.18C113.52 221.658 119.15 214.725 126.069 214.725C132.989 214.725 138.618 221.658 138.618 230.18L138.619 237.238ZM113.52 266.811V251.671H138.619V266.811H113.52ZM150.338 266.811V251.671H265.246V266.811H150.338ZM276.964 144.396H289.257V301.625H276.964C276.964 287.006 276.964 162.829 276.964 144.396ZM227.401 380.997C227.401 385.171 224.644 388.566 221.255 388.566C217.865 388.566 215.108 385.171 215.108 380.997V345.63H227.401V380.997ZM348.652 380.997C348.652 385.171 345.895 388.566 342.505 388.566C339.116 388.566 336.359 385.171 336.359 380.997V345.63H342.505C344.432 345.63 346.621 345.199 348.652 344.272V380.997ZM384.721 237.054C387.625 239.202 388.574 243.855 386.825 247.441L349.489 324.01L349.488 324.01L347.775 327.524C346.67 329.789 344.651 331.197 342.505 331.197C326 331.197 225.031 331.197 208.675 331.197C205.286 331.197 202.529 327.801 202.529 323.628C202.529 319.454 205.286 316.057 208.675 316.057H335.711C337.768 316.057 339.675 314.728 340.734 312.556C346.956 299.797 366.171 260.391 372.13 248.169L376.286 239.646C378.029 236.072 381.796 234.89 384.721 237.054ZM362.329 237.238H300.975V144.396H347.503L362.329 237.238ZM356.96 129.963C351.578 102.751 341.616 74.7385 325.651 54.6433C353.04 67.8656 376.733 94.1958 389.673 129.963C378.097 129.963 368.536 129.963 356.96 129.963Z"/>
</mask>
<path d="M79.7891 183.874C88.6366 183.495 97.0115 178.946 103.212 171.257C116.788 188.134 138.911 188.125 152.481 171.259C158.982 179.339 167.795 183.908 177.107 183.912H177.108C180.344 183.912 182.968 180.683 182.968 176.697C182.969 172.712 180.347 169.48 177.111 169.479C170.248 169.476 163.789 165.722 159.392 159.179C157.677 156.625 155.158 155.161 152.481 155.161C149.805 155.161 147.286 156.625 145.57 159.179C136.333 172.924 119.343 172.897 110.124 159.179C106.514 153.807 99.8903 153.836 96.3021 159.179C92.0436 165.517 86.0335 169.164 79.3813 169.449C76.147 169.588 73.6166 172.929 73.7299 176.912C73.8424 180.896 76.5525 184.009 79.7891 183.874Z" stroke="white" stroke-width="6" mask="url(#path-1-outside-1_3_1074)"/>
<path d="M79.7883 142.169C88.6366 141.79 97.0122 137.241 103.213 129.552C113.471 142.285 129.175 145.831 142.449 138.25C145.385 136.573 146.661 132.283 145.299 128.668C143.938 125.052 140.456 123.482 137.518 125.157C128.058 130.561 116.793 127.402 110.124 117.476C106.515 112.105 99.8903 112.133 96.3036 117.476C92.0436 123.815 86.0343 127.462 79.3829 127.746C76.1486 127.885 73.6174 131.225 73.7307 135.209C73.8424 139.19 76.5884 142.295 79.7883 142.169Z" stroke="white" stroke-width="6" mask="url(#path-1-outside-1_3_1074)"/>
<path d="M402.386 129.957C385.108 76.5493 345.932 39.5803 300.975 31.8799V25.0023C300.975 12.8701 292.962 3 283.111 3C273.26 3 265.246 12.8701 265.246 25.0023V31.8799C250.883 34.3403 237.034 39.765 224.176 47.9734H158.485C155.249 47.9734 152.626 51.2044 152.626 55.1898C152.626 59.1752 155.249 62.4062 158.485 62.4062H205.627C200.956 66.7707 195.984 72.1079 191.631 77.5462H60.9692C58.1692 77.5462 55.7607 79.9862 55.2201 83.3702L29.7175 243.062C29.0065 247.518 31.7791 251.671 35.4666 251.671H101.802V266.811H20.87C17.0021 266.811 14.0928 262.448 14.8396 257.78L45.064 68.5141C45.6289 64.9743 48.1655 62.4052 51.0944 62.4052H130.472C133.708 62.4052 136.331 59.1742 136.331 55.1889C136.331 51.2035 133.708 47.9725 130.472 47.9725H51.0944C42.5805 47.9725 35.208 55.4409 33.565 65.7296L3.34219 254.993C1.16801 268.594 9.63425 281.243 20.8708 281.243H101.803V298.197C101.803 302.182 104.425 305.413 107.662 305.413C110.899 305.413 113.521 302.182 113.521 298.197V281.243H138.62V298.197C138.62 302.182 141.243 305.413 144.479 305.413C147.716 305.413 150.339 302.182 150.339 298.197V281.243H265.246V301.625H208.676C198.825 301.625 190.811 311.495 190.811 323.629C190.811 333.496 196.112 341.866 203.391 344.647V380.998C203.391 393.13 211.405 403 221.256 403C231.106 403 239.12 393.13 239.12 380.998V345.631H324.641V380.998C324.641 393.13 332.655 403 342.506 403C352.356 403 360.371 393.13 360.371 380.998V329.728L396.873 254.872C399.258 249.981 399.993 244.195 398.97 238.649L392.435 197.717C391.811 193.807 388.729 191.258 385.554 192.029C382.379 192.797 380.311 196.591 380.936 200.502L384.336 221.795C380.068 220.967 375.665 222.166 372.276 224.729L359.448 144.395H371.976L375.426 166C376.051 169.909 379.132 172.458 382.306 171.688C385.481 170.919 387.549 167.125 386.925 163.215L383.919 144.395H394.417C400.453 144.396 404.626 136.884 402.386 129.957ZM300.975 281.243H342.333L332.394 301.625H300.975L300.975 281.243ZM349.371 266.811H300.975V251.671H356.753C354.194 256.921 351.94 261.544 349.371 266.811ZM262.121 129.963C267.4 65.4467 279.141 44.9483 283.066 44.7925H283.157C287.08 44.9474 298.822 65.4448 304.102 129.963C298.697 129.963 268.303 129.963 262.121 129.963ZM221.348 129.963C229.672 90.7685 245.812 61.775 264.816 50.2586C256.429 72.0078 252.258 106.132 250.351 129.963H221.348ZM176.55 129.963C189.274 94.7904 212.79 68.0561 240.572 54.6433C224.604 74.7414 214.644 102.755 209.262 129.963H176.55ZM315.872 129.963C313.961 106.095 309.787 71.9905 301.406 50.2577C320.41 61.774 336.549 90.7675 344.874 129.963H315.872ZM276.964 30.5358V25.0023C276.964 20.8283 279.721 17.4328 283.111 17.4328C286.5 17.4328 289.257 20.8283 289.257 25.0023V30.5358C285.361 30.3087 281.159 30.2933 276.964 30.5358ZM65.7878 91.9789H181.418C174.204 103.505 168.271 116.247 163.837 129.954C161.598 136.872 165.761 144.396 171.805 144.396H265.245V237.238H150.338V230.18C150.338 213.7 139.451 200.292 126.07 200.292C118.713 200.292 112.116 204.35 107.662 210.737C103.208 204.349 96.6107 200.292 89.2538 200.292C75.872 200.292 64.9863 213.7 64.9863 230.18V237.238H42.5906L65.7878 91.9789ZM101.802 237.238H76.7033V230.18C76.7033 221.658 82.3328 214.725 89.2522 214.725C96.1716 214.725 101.801 221.658 101.801 230.18L101.802 237.238ZM138.619 237.238H113.52V230.18C113.52 221.658 119.15 214.725 126.069 214.725C132.989 214.725 138.618 221.658 138.618 230.18L138.619 237.238ZM113.52 266.811V251.671H138.619V266.811H113.52ZM150.338 266.811V251.671H265.246V266.811H150.338ZM276.964 144.396H289.257V301.625H276.964C276.964 287.006 276.964 162.829 276.964 144.396ZM227.401 380.997C227.401 385.171 224.644 388.566 221.255 388.566C217.865 388.566 215.108 385.171 215.108 380.997V345.63H227.401V380.997ZM348.652 380.997C348.652 385.171 345.895 388.566 342.505 388.566C339.116 388.566 336.359 385.171 336.359 380.997V345.63H342.505C344.432 345.63 346.621 345.199 348.652 344.272V380.997ZM384.721 237.054C387.625 239.202 388.574 243.855 386.825 247.441L349.489 324.01L349.488 324.01L347.775 327.524C346.67 329.789 344.651 331.197 342.505 331.197C326 331.197 225.031 331.197 208.675 331.197C205.286 331.197 202.529 327.801 202.529 323.628C202.529 319.454 205.286 316.057 208.675 316.057H335.711C337.768 316.057 339.675 314.728 340.734 312.556C346.956 299.797 366.171 260.391 372.13 248.169L376.286 239.646C378.029 236.072 381.796 234.89 384.721 237.054ZM362.329 237.238H300.975V144.396H347.503L362.329 237.238ZM356.96 129.963C351.578 102.751 341.616 74.7385 325.651 54.6433C353.04 67.8656 376.733 94.1958 389.673 129.963C378.097 129.963 368.536 129.963 356.96 129.963Z" stroke="white" stroke-width="6" mask="url(#path-1-outside-1_3_1074)"/>
</svg>
