<svg width="406" height="406" viewBox="0 0 406 406" fill="none" xmlns="http://www.w3.org/2000/svg">
<mask id="path-1-outside-1_3_1071" maskUnits="userSpaceOnUse" x="0" y="-1" width="406" height="407" fill="black">
<rect fill="white" y="-1" width="406" height="407"/>
<path d="M396.43 124.223C392.8 124.223 389.858 127.687 389.858 131.962V290.685C389.858 344.968 341.089 372.508 312.017 384.092C296.561 390.253 288.669 386.982 287.135 383.279C286.222 381.076 287.396 378.134 289.989 376.125C301.183 367.458 346.407 326.915 346.407 301.398C346.407 289.873 345.474 278.812 344.692 271.565C344.246 267.432 342.136 263.754 339.047 261.724C335.953 259.69 332.182 259.51 328.956 261.235L293.867 280.014C291.348 281.362 288.423 280.625 286.594 278.181C285.451 276.654 284.905 274.695 285.056 272.669C285.208 270.641 286.036 268.826 287.389 267.557C293.648 261.684 298.896 257.04 303.297 253.349C303.348 253.305 303.403 253.264 303.452 253.219C313.877 244.494 319.478 241.211 322.213 239.981C322.343 239.928 322.472 239.875 322.598 239.814C323.856 239.283 324.395 239.243 324.469 239.24H345.988C349.617 239.24 352.559 235.776 352.559 231.501V136.363C352.559 132.088 349.617 128.624 345.988 128.624C342.359 128.624 339.416 132.088 339.416 136.363V223.761H328.943C330.746 214.684 332.328 203.046 331.873 191.424C331.23 174.969 326.527 162.481 318.21 154.988C317.501 127.652 311.429 105.461 300.138 88.9801C292.088 77.2307 281.629 68.6469 269.02 63.3949C264.943 38.5795 248.199 16.5067 226.153 7.49058C207.157 -0.277014 168.048 -4.65609 119.546 53.3099C116.999 56.3538 117.03 61.2529 119.615 64.2524C122.199 67.2529 126.36 67.2168 128.907 64.1719C172.337 12.269 205.774 15.543 221.839 22.1116C226.419 23.9843 230.542 26.4638 234.22 29.3601C230.007 29.2023 225.727 29.6284 221.521 30.6685C208.051 34.0054 195.029 42.8141 181.709 57.6002C179.068 60.5316 178.944 65.4297 181.434 68.5407C182.727 70.1555 184.47 70.9706 186.217 70.9706C187.833 70.9706 189.453 70.2721 190.723 68.8636C202.233 56.0875 213.193 48.548 224.225 45.8147C233.706 43.4704 243.549 45.2049 250.902 50.4342C254.124 57.1008 256.027 63.9676 256.602 70.1317C256.817 72.3708 256.872 74.5655 256.765 76.6632C256.622 79.5327 256.184 82.4435 255.452 85.3914C253.147 94.6655 247.926 104.32 239.843 114.289C233.321 122.332 225.68 129.686 218.06 136.185C218.058 136.187 218.056 136.189 218.054 136.191C202.502 149.471 182.56 162.864 158.777 176C135.857 188.672 115.921 211.998 105.956 237.154C96.7839 229.828 91.0476 226.511 87.3431 225.008C83.841 186.745 85.8833 133.601 112.603 87.4829C114.648 83.9531 113.876 79.1386 110.878 76.7292C107.88 74.3199 103.792 75.23 101.747 78.7609C73.4722 127.562 70.6509 183.073 74.0207 223.76H66.5837V136.362C66.5837 132.087 63.6415 128.623 60.0123 128.623C56.3832 128.623 53.4409 132.087 53.4409 136.362V231.5C53.4409 235.775 56.3832 239.239 60.0123 239.239H81.5252C81.7653 239.246 86.6982 239.622 104.952 255.255C105.021 255.317 105.091 255.377 105.162 255.435C109.029 258.754 113.477 262.737 118.613 267.556C119.965 268.824 120.794 270.639 120.946 272.667C121.097 274.693 120.551 276.651 119.408 278.179C117.578 280.623 114.654 281.36 112.135 280.011L77.0453 261.233C73.8192 259.508 70.0481 259.69 66.9543 261.722C63.8649 263.752 61.7542 267.43 61.3091 271.563C60.5266 278.81 59.5944 289.871 59.5944 301.396C59.5944 326.913 104.817 367.456 116.012 376.123C118.605 378.131 119.778 381.074 118.865 383.277C117.331 386.978 109.439 390.249 93.9828 384.09C64.9119 372.505 16.1427 344.966 16.1427 290.683V131.964C16.1427 127.689 13.2005 124.225 9.57137 124.225C5.94222 124.225 3 127.689 3 131.964V290.686C3 318.519 13.3924 343.001 33.8907 363.452C51.8699 381.392 74.2021 392.551 89.7701 398.755C97.2553 401.738 103.674 402.998 109.087 402.998C120.748 402.997 127.744 397.149 130.677 390.069C134.514 380.809 131.384 369.506 123.233 363.194C115.319 357.066 102.356 345.089 91.2351 332.151C77.5973 316.28 72.738 305.86 72.738 301.4C72.738 292.207 73.382 283.274 74.0286 276.624L106.698 294.106C114.516 298.288 123.588 296.005 129.268 288.416C132.815 283.678 134.509 277.603 134.039 271.312C133.569 265.021 131 259.389 126.805 255.453C123.203 252.073 119.907 249.074 116.858 246.377C125.071 223.663 143.605 201.493 164.363 190.017C187.484 177.247 207.165 164.171 222.93 151.114C267.462 170.457 283.448 209.98 291.826 244.025C288.065 247.287 283.884 251.055 279.196 255.453C275.001 259.389 272.431 265.021 271.962 271.313C271.491 277.604 273.186 283.678 276.733 288.417C282.411 296.005 291.482 298.288 299.303 294.107L331.971 276.625C332.617 283.274 333.261 292.209 333.261 301.401C333.261 305.861 328.402 316.282 314.764 332.152C303.644 345.091 290.681 357.067 282.766 363.195C274.615 369.507 271.485 380.81 275.322 390.07C278.256 397.151 285.25 403 296.912 403C302.325 403 308.746 401.739 316.229 398.757C331.798 392.553 354.13 381.393 372.109 363.454C392.608 343.004 403 318.521 403 290.688V131.965C403.001 127.688 400.059 124.223 396.43 124.223ZM235.18 140.227C251.016 125.013 267.376 104.254 269.684 80.3602C293.281 92.9599 301.903 119.051 304.332 143.583L301.784 141.47C298.817 139.009 294.717 139.847 292.627 143.341C290.538 146.836 291.248 151.663 294.215 154.124L307.92 165.494C307.995 165.556 308.075 165.597 308.151 165.655C308.241 165.723 308.323 165.802 308.417 165.865C321.873 175.014 320.328 203.72 314.665 226.951C311.743 228.571 307.994 231.027 303.17 234.713C294.53 202.169 277.555 162.159 235.18 140.227Z"/>
</mask>
<path d="M396.43 124.223C392.8 124.223 389.858 127.687 389.858 131.962V290.685C389.858 344.968 341.089 372.508 312.017 384.092C296.561 390.253 288.669 386.982 287.135 383.279C286.222 381.076 287.396 378.134 289.989 376.125C301.183 367.458 346.407 326.915 346.407 301.398C346.407 289.873 345.474 278.812 344.692 271.565C344.246 267.432 342.136 263.754 339.047 261.724C335.953 259.69 332.182 259.51 328.956 261.235L293.867 280.014C291.348 281.362 288.423 280.625 286.594 278.181C285.451 276.654 284.905 274.695 285.056 272.669C285.208 270.641 286.036 268.826 287.389 267.557C293.648 261.684 298.896 257.04 303.297 253.349C303.348 253.305 303.403 253.264 303.452 253.219C313.877 244.494 319.478 241.211 322.213 239.981C322.343 239.928 322.472 239.875 322.598 239.814C323.856 239.283 324.395 239.243 324.469 239.24H345.988C349.617 239.24 352.559 235.776 352.559 231.501V136.363C352.559 132.088 349.617 128.624 345.988 128.624C342.359 128.624 339.416 132.088 339.416 136.363V223.761H328.943C330.746 214.684 332.328 203.046 331.873 191.424C331.23 174.969 326.527 162.481 318.21 154.988C317.501 127.652 311.429 105.461 300.138 88.9801C292.088 77.2307 281.629 68.6469 269.02 63.3949C264.943 38.5795 248.199 16.5067 226.153 7.49058C207.157 -0.277014 168.048 -4.65609 119.546 53.3099C116.999 56.3538 117.03 61.2529 119.615 64.2524C122.199 67.2529 126.36 67.2168 128.907 64.1719C172.337 12.269 205.774 15.543 221.839 22.1116C226.419 23.9843 230.542 26.4638 234.22 29.3601C230.007 29.2023 225.727 29.6284 221.521 30.6685C208.051 34.0054 195.029 42.8141 181.709 57.6002C179.068 60.5316 178.944 65.4297 181.434 68.5407C182.727 70.1555 184.47 70.9706 186.217 70.9706C187.833 70.9706 189.453 70.2721 190.723 68.8636C202.233 56.0875 213.193 48.548 224.225 45.8147C233.706 43.4704 243.549 45.2049 250.902 50.4342C254.124 57.1008 256.027 63.9676 256.602 70.1317C256.817 72.3708 256.872 74.5655 256.765 76.6632C256.622 79.5327 256.184 82.4435 255.452 85.3914C253.147 94.6655 247.926 104.32 239.843 114.289C233.321 122.332 225.68 129.686 218.06 136.185C218.058 136.187 218.056 136.189 218.054 136.191C202.502 149.471 182.56 162.864 158.777 176C135.857 188.672 115.921 211.998 105.956 237.154C96.7839 229.828 91.0476 226.511 87.3431 225.008C83.841 186.745 85.8833 133.601 112.603 87.4829C114.648 83.9531 113.876 79.1386 110.878 76.7292C107.88 74.3199 103.792 75.23 101.747 78.7609C73.4722 127.562 70.6509 183.073 74.0207 223.76H66.5837V136.362C66.5837 132.087 63.6415 128.623 60.0123 128.623C56.3832 128.623 53.4409 132.087 53.4409 136.362V231.5C53.4409 235.775 56.3832 239.239 60.0123 239.239H81.5252C81.7653 239.246 86.6982 239.622 104.952 255.255C105.021 255.317 105.091 255.377 105.162 255.435C109.029 258.754 113.477 262.737 118.613 267.556C119.965 268.824 120.794 270.639 120.946 272.667C121.097 274.693 120.551 276.651 119.408 278.179C117.578 280.623 114.654 281.36 112.135 280.011L77.0453 261.233C73.8192 259.508 70.0481 259.69 66.9543 261.722C63.8649 263.752 61.7542 267.43 61.3091 271.563C60.5266 278.81 59.5944 289.871 59.5944 301.396C59.5944 326.913 104.817 367.456 116.012 376.123C118.605 378.131 119.778 381.074 118.865 383.277C117.331 386.978 109.439 390.249 93.9828 384.09C64.9119 372.505 16.1427 344.966 16.1427 290.683V131.964C16.1427 127.689 13.2005 124.225 9.57137 124.225C5.94222 124.225 3 127.689 3 131.964V290.686C3 318.519 13.3924 343.001 33.8907 363.452C51.8699 381.392 74.2021 392.551 89.7701 398.755C97.2553 401.738 103.674 402.998 109.087 402.998C120.748 402.997 127.744 397.149 130.677 390.069C134.514 380.809 131.384 369.506 123.233 363.194C115.319 357.066 102.356 345.089 91.2351 332.151C77.5973 316.28 72.738 305.86 72.738 301.4C72.738 292.207 73.382 283.274 74.0286 276.624L106.698 294.106C114.516 298.288 123.588 296.005 129.268 288.416C132.815 283.678 134.509 277.603 134.039 271.312C133.569 265.021 131 259.389 126.805 255.453C123.203 252.073 119.907 249.074 116.858 246.377C125.071 223.663 143.605 201.493 164.363 190.017C187.484 177.247 207.165 164.171 222.93 151.114C267.462 170.457 283.448 209.98 291.826 244.025C288.065 247.287 283.884 251.055 279.196 255.453C275.001 259.389 272.431 265.021 271.962 271.313C271.491 277.604 273.186 283.678 276.733 288.417C282.411 296.005 291.482 298.288 299.303 294.107L331.971 276.625C332.617 283.274 333.261 292.209 333.261 301.401C333.261 305.861 328.402 316.282 314.764 332.152C303.644 345.091 290.681 357.067 282.766 363.195C274.615 369.507 271.485 380.81 275.322 390.07C278.256 397.151 285.25 403 296.912 403C302.325 403 308.746 401.739 316.229 398.757C331.798 392.553 354.13 381.393 372.109 363.454C392.608 343.004 403 318.521 403 290.688V131.965C403.001 127.688 400.059 124.223 396.43 124.223ZM235.18 140.227C251.016 125.013 267.376 104.254 269.684 80.3602C293.281 92.9599 301.903 119.051 304.332 143.583L301.784 141.47C298.817 139.009 294.717 139.847 292.627 143.341C290.538 146.836 291.248 151.663 294.215 154.124L307.92 165.494C307.995 165.556 308.075 165.597 308.151 165.655C308.241 165.723 308.323 165.802 308.417 165.865C321.873 175.014 320.328 203.72 314.665 226.951C311.743 228.571 307.994 231.027 303.17 234.713C294.53 202.169 277.555 162.159 235.18 140.227Z" stroke="white" stroke-width="6" mask="url(#path-1-outside-1_3_1071)"/>
</svg>
