<svg width="406" height="406" viewBox="0 0 406 406" fill="none" xmlns="http://www.w3.org/2000/svg">
<mask id="path-1-outside-1_3_1075" maskUnits="userSpaceOnUse" x="0" y="0" width="406" height="406" fill="black">
<rect fill="white" width="406" height="406"/>
<path d="M67.8625 76.5653H93.6912C96.9279 76.5653 99.5508 73.4571 99.5508 69.6234C99.5508 65.7897 96.9279 62.6816 93.6912 62.6816H67.8625C58.2906 62.6816 50.2055 53.7023 49.8383 42.6673C49.8265 42.32 49.8211 41.9756 49.8211 41.6323C49.8211 27.9857 59.1922 16.8835 70.7106 16.8835C77.0518 16.8835 82.9789 20.2443 86.971 26.104C88.6615 28.5855 91.5602 29.3824 94.0033 28.0366C96.2544 26.7954 98.6599 26.166 101.152 26.166C107.168 26.166 112.791 30.0016 115.827 36.176C116.611 37.7736 117.903 38.9342 119.414 39.3998C120.925 39.8653 122.529 39.5979 123.873 38.6566C125.801 37.3053 128.009 36.5907 130.259 36.5907C136.353 36.5907 141.555 41.7405 142.628 48.8351C143.13 52.1436 145.559 54.5523 148.396 54.5523H167.357C169.351 54.5523 171.062 56.3774 171.095 58.5378C171.112 59.6402 170.764 60.6793 170.113 61.4646C169.463 62.2492 168.594 62.6816 167.664 62.6816H117.127C113.89 62.6816 111.268 65.7897 111.268 69.6234C111.268 73.4571 113.89 76.5653 117.127 76.5653H167.664C171.764 76.5653 175.603 74.6565 178.475 71.1912C181.347 67.7259 182.887 63.1428 182.813 58.284C182.663 48.5701 175.73 40.6688 167.357 40.6688H152.774C149.133 29.9849 140.324 22.7072 130.259 22.7072C127.739 22.7072 125.244 23.1718 122.866 24.0724C117.467 16.6845 109.536 12.2825 101.152 12.2825C98.4185 12.2825 95.745 12.7314 93.1643 13.62C87.1359 6.81887 79.1595 3 70.7106 3C52.7305 3 38.1023 20.3303 38.1023 41.6323C38.1023 42.1555 38.1117 42.6821 38.1289 43.2122C38.75 61.9152 51.811 76.5653 67.8625 76.5653Z"/>
<path d="M397.14 389.116H393.327C399.386 380.64 402.247 367.467 402.247 348.421C402.247 324.638 397.895 294.787 390.888 270.52C384.792 249.406 374.257 224.237 358.683 224.237C350.852 224.237 343.588 230.542 337.029 242.997C331.345 232.236 324.166 224.237 315.387 224.237C305.945 224.237 297.35 233.363 289.809 251.374C288.271 250.722 286.621 250.348 284.895 250.348H226.498C223.262 250.348 220.639 253.456 220.639 257.29C220.639 261.123 223.262 264.232 226.498 264.232H284.895C286.509 264.232 287.821 265.786 287.821 267.698V275.547C287.821 277.459 286.509 279.014 284.895 279.014H121.104C119.491 279.014 118.179 277.459 118.179 275.547V267.698C118.179 265.786 119.491 264.232 121.104 264.232H203.061C206.297 264.232 208.92 261.123 208.92 257.29C208.92 253.456 206.297 250.348 203.061 250.348H154.474C158.958 238.488 161.316 225.514 161.316 212.434C161.316 161.35 126.236 119.79 83.1172 119.79C39.9984 119.79 4.91797 161.35 4.91797 212.434C4.91797 260.855 36.4383 300.713 76.4464 304.738V344.275C75.2115 344.079 73.9604 343.976 72.6976 343.976C70.4732 343.976 68.287 344.281 66.1578 344.886C59.3367 333.964 48.1867 327.534 36.5531 328.176C18.7539 329.154 4.23203 346.444 3.49531 367.542C3.22891 375.184 4.7961 382.679 7.85859 389.226C5.1 389.789 3 392.63 3 396.058C3 399.892 5.62265 403 8.85937 403H397.14C400.377 403 403 399.892 403 396.058C403 392.224 400.377 389.116 397.14 389.116ZM121.38 378.992C121.262 376.968 120.951 374.963 120.48 373.011H139.19V389.116H120.498C121.274 385.879 121.581 382.466 121.38 378.992ZM248.557 321.565V331.792H160.022V321.565H248.557ZM273.384 321.565C273.011 325.031 272.701 328.45 272.461 331.792H260.275V321.565H273.384ZM297.91 345.676C298.653 345.676 299.258 346.392 299.258 347.272V357.53C299.258 358.411 298.653 359.127 297.91 359.127H108.09C107.347 359.127 106.741 358.411 106.741 357.53V347.272C106.741 346.392 107.346 345.676 108.09 345.676H297.91ZM150.91 373.011H257.669V389.116H150.91V373.011ZM274.078 373.011C275.622 379.916 277.928 385.159 280.767 389.116H269.387V373.011H274.078ZM343.672 257.383C348.748 245.322 354.36 238.12 358.683 238.12C363.512 238.12 371.939 247.782 379.801 275.013C386.318 297.586 390.529 326.401 390.529 348.421C390.529 387.557 378.542 387.557 358.683 387.557C356.241 387.557 353.674 387.553 351.139 387.435C356.434 378.934 358.951 366.259 358.951 348.421C358.951 324.638 354.599 294.787 347.592 270.52C346.392 266.365 345.018 262.053 343.47 257.807C343.539 257.668 343.609 257.53 343.672 257.383ZM315.387 238.121C320.214 238.121 328.642 247.783 336.504 275.014C343.021 297.587 347.232 326.402 347.232 348.422C347.232 387.559 335.245 387.559 315.386 387.559C299.631 387.559 290.635 386.852 286.336 373.012H297.909C305.115 373.012 310.976 366.067 310.976 357.533V347.274C310.976 338.739 305.114 331.794 297.909 331.794H284.227C284.483 328.448 284.809 325.027 285.204 321.548C293.135 321.35 299.539 313.659 299.539 304.216V296.367C299.539 292.46 298.43 288.863 296.584 285.959C298.431 283.056 299.539 279.458 299.539 275.551V267.701C299.539 265.569 299.197 263.534 298.601 261.646C298.75 261.372 298.89 261.086 299.007 260.781C304.487 246.59 310.609 238.121 315.387 238.121ZM284.895 292.898C286.509 292.898 287.821 294.453 287.821 296.364V304.214C287.821 306.125 286.509 307.68 284.895 307.68H121.104C119.491 307.68 118.179 306.125 118.179 304.214V296.364C118.179 294.453 119.491 292.898 121.104 292.898H284.895ZM16.6375 212.434C16.6375 169.005 46.4609 133.673 83.1178 133.673C119.775 133.673 149.598 169.005 149.598 212.434C149.598 225.469 146.855 238.382 141.668 249.774C141.582 249.963 141.507 250.154 141.437 250.348H121.105C113.031 250.348 106.461 258.13 106.461 267.698V275.547C106.461 279.082 107.362 282.369 108.901 285.115C108.681 285.187 108.462 285.27 108.246 285.375C101.823 288.484 95.0864 290.337 88.1664 290.949V236.258L108.41 212.274C110.699 209.563 110.699 205.167 108.41 202.457C106.121 199.746 102.412 199.746 100.123 202.457L88.1664 216.623V198.505C88.1664 194.671 85.5435 191.563 82.3067 191.563C79.0706 191.563 76.4477 194.671 76.4477 198.505V240.239L65.1758 226.889C62.8867 224.177 59.1773 224.176 56.889 226.889C54.6008 229.6 54.6008 233.995 56.889 236.706L76.447 259.878V290.799C42.9101 286.82 16.6375 253.196 16.6375 212.434ZM88.1657 304.883C94.4096 304.414 100.529 303.072 106.46 300.874V304.214C106.46 313.781 113.029 321.563 121.104 321.563H148.303V331.791H108.089C100.884 331.791 95.0221 338.736 95.0221 347.272V351.743C93.7717 351.838 92.5329 352.033 91.3116 352.354C90.3169 351.307 89.2643 350.352 88.1651 349.49L88.1657 304.883ZM22.4164 389.116C17.5328 383.687 14.9234 376.153 15.2039 368.116C15.693 354.144 25.3094 342.693 37.0969 342.047C46.0976 341.558 54.2797 347.078 58.5094 356.46C59.9578 359.673 63.2539 361.014 66.0633 359.531C68.163 358.422 70.3953 357.86 72.6989 357.86C77.5009 357.86 82.0406 360.355 85.1548 364.705C86.7835 366.982 89.4584 367.77 91.7977 366.662C93.4453 365.883 95.172 365.52 96.9436 365.569C99.1927 369.93 103.202 372.874 107.799 372.994C108.893 375.103 109.549 377.504 109.689 379.942C109.879 383.221 109.22 386.394 107.812 389.116H22.4164Z"/>
<path d="M220.987 163.504H279.591C282.828 163.504 285.451 160.396 285.451 156.562C285.451 152.729 282.828 149.621 279.591 149.621H220.987C217.11 149.621 213.936 146.007 213.91 141.564C213.91 141.543 213.91 141.461 213.91 141.441C213.91 131.883 220.477 123.947 228.55 123.749C231.371 123.68 233.75 121.239 234.21 117.938C236.599 100.79 248.996 88.3424 263.688 88.3424C278.454 88.3424 290.863 100.859 293.192 118.104C293.692 121.807 296.588 124.366 299.721 123.893C300.482 123.778 301.092 123.724 301.645 123.724C306.932 123.724 311.879 127.09 314.557 132.508C315.609 134.635 317.533 135.942 319.614 135.942H335.679C338.862 135.942 341.452 139.01 341.452 142.781C341.452 146.552 338.863 149.621 335.679 149.621H303.027C299.791 149.621 297.168 152.729 297.168 156.562C297.168 160.396 299.791 163.504 303.027 163.504H335.679C345.323 163.504 353.171 154.208 353.171 142.781C353.171 131.355 345.323 122.058 335.679 122.058H322.704C318.096 115.052 311.141 110.604 303.638 109.93C298.556 89.0518 282.496 74.458 263.688 74.458C244.748 74.458 228.547 89.3204 223.611 110.483C211.444 113.409 202.19 126.282 202.19 141.44L202.191 141.659C202.262 153.704 210.694 163.504 220.987 163.504Z"/>
</mask>
<path d="M67.8625 76.5653H93.6912C96.9279 76.5653 99.5508 73.4571 99.5508 69.6234C99.5508 65.7897 96.9279 62.6816 93.6912 62.6816H67.8625C58.2906 62.6816 50.2055 53.7023 49.8383 42.6673C49.8265 42.32 49.8211 41.9756 49.8211 41.6323C49.8211 27.9857 59.1922 16.8835 70.7106 16.8835C77.0518 16.8835 82.9789 20.2443 86.971 26.104C88.6615 28.5855 91.5602 29.3824 94.0033 28.0366C96.2544 26.7954 98.6599 26.166 101.152 26.166C107.168 26.166 112.791 30.0016 115.827 36.176C116.611 37.7736 117.903 38.9342 119.414 39.3998C120.925 39.8653 122.529 39.5979 123.873 38.6566C125.801 37.3053 128.009 36.5907 130.259 36.5907C136.353 36.5907 141.555 41.7405 142.628 48.8351C143.13 52.1436 145.559 54.5523 148.396 54.5523H167.357C169.351 54.5523 171.062 56.3774 171.095 58.5378C171.112 59.6402 170.764 60.6793 170.113 61.4646C169.463 62.2492 168.594 62.6816 167.664 62.6816H117.127C113.89 62.6816 111.268 65.7897 111.268 69.6234C111.268 73.4571 113.89 76.5653 117.127 76.5653H167.664C171.764 76.5653 175.603 74.6565 178.475 71.1912C181.347 67.7259 182.887 63.1428 182.813 58.284C182.663 48.5701 175.73 40.6688 167.357 40.6688H152.774C149.133 29.9849 140.324 22.7072 130.259 22.7072C127.739 22.7072 125.244 23.1718 122.866 24.0724C117.467 16.6845 109.536 12.2825 101.152 12.2825C98.4185 12.2825 95.745 12.7314 93.1643 13.62C87.1359 6.81887 79.1595 3 70.7106 3C52.7305 3 38.1023 20.3303 38.1023 41.6323C38.1023 42.1555 38.1117 42.6821 38.1289 43.2122C38.75 61.9152 51.811 76.5653 67.8625 76.5653Z" stroke="white" stroke-width="6" mask="url(#path-1-outside-1_3_1075)"/>
<path d="M397.14 389.116H393.327C399.386 380.64 402.247 367.467 402.247 348.421C402.247 324.638 397.895 294.787 390.888 270.52C384.792 249.406 374.257 224.237 358.683 224.237C350.852 224.237 343.588 230.542 337.029 242.997C331.345 232.236 324.166 224.237 315.387 224.237C305.945 224.237 297.35 233.363 289.809 251.374C288.271 250.722 286.621 250.348 284.895 250.348H226.498C223.262 250.348 220.639 253.456 220.639 257.29C220.639 261.123 223.262 264.232 226.498 264.232H284.895C286.509 264.232 287.821 265.786 287.821 267.698V275.547C287.821 277.459 286.509 279.014 284.895 279.014H121.104C119.491 279.014 118.179 277.459 118.179 275.547V267.698C118.179 265.786 119.491 264.232 121.104 264.232H203.061C206.297 264.232 208.92 261.123 208.92 257.29C208.92 253.456 206.297 250.348 203.061 250.348H154.474C158.958 238.488 161.316 225.514 161.316 212.434C161.316 161.35 126.236 119.79 83.1172 119.79C39.9984 119.79 4.91797 161.35 4.91797 212.434C4.91797 260.855 36.4383 300.713 76.4464 304.738V344.275C75.2115 344.079 73.9604 343.976 72.6976 343.976C70.4732 343.976 68.287 344.281 66.1578 344.886C59.3367 333.964 48.1867 327.534 36.5531 328.176C18.7539 329.154 4.23203 346.444 3.49531 367.542C3.22891 375.184 4.7961 382.679 7.85859 389.226C5.1 389.789 3 392.63 3 396.058C3 399.892 5.62265 403 8.85937 403H397.14C400.377 403 403 399.892 403 396.058C403 392.224 400.377 389.116 397.14 389.116ZM121.38 378.992C121.262 376.968 120.951 374.963 120.48 373.011H139.19V389.116H120.498C121.274 385.879 121.581 382.466 121.38 378.992ZM248.557 321.565V331.792H160.022V321.565H248.557ZM273.384 321.565C273.011 325.031 272.701 328.45 272.461 331.792H260.275V321.565H273.384ZM297.91 345.676C298.653 345.676 299.258 346.392 299.258 347.272V357.53C299.258 358.411 298.653 359.127 297.91 359.127H108.09C107.347 359.127 106.741 358.411 106.741 357.53V347.272C106.741 346.392 107.346 345.676 108.09 345.676H297.91ZM150.91 373.011H257.669V389.116H150.91V373.011ZM274.078 373.011C275.622 379.916 277.928 385.159 280.767 389.116H269.387V373.011H274.078ZM343.672 257.383C348.748 245.322 354.36 238.12 358.683 238.12C363.512 238.12 371.939 247.782 379.801 275.013C386.318 297.586 390.529 326.401 390.529 348.421C390.529 387.557 378.542 387.557 358.683 387.557C356.241 387.557 353.674 387.553 351.139 387.435C356.434 378.934 358.951 366.259 358.951 348.421C358.951 324.638 354.599 294.787 347.592 270.52C346.392 266.365 345.018 262.053 343.47 257.807C343.539 257.668 343.609 257.53 343.672 257.383ZM315.387 238.121C320.214 238.121 328.642 247.783 336.504 275.014C343.021 297.587 347.232 326.402 347.232 348.422C347.232 387.559 335.245 387.559 315.386 387.559C299.631 387.559 290.635 386.852 286.336 373.012H297.909C305.115 373.012 310.976 366.067 310.976 357.533V347.274C310.976 338.739 305.114 331.794 297.909 331.794H284.227C284.483 328.448 284.809 325.027 285.204 321.548C293.135 321.35 299.539 313.659 299.539 304.216V296.367C299.539 292.46 298.43 288.863 296.584 285.959C298.431 283.056 299.539 279.458 299.539 275.551V267.701C299.539 265.569 299.197 263.534 298.601 261.646C298.75 261.372 298.89 261.086 299.007 260.781C304.487 246.59 310.609 238.121 315.387 238.121ZM284.895 292.898C286.509 292.898 287.821 294.453 287.821 296.364V304.214C287.821 306.125 286.509 307.68 284.895 307.68H121.104C119.491 307.68 118.179 306.125 118.179 304.214V296.364C118.179 294.453 119.491 292.898 121.104 292.898H284.895ZM16.6375 212.434C16.6375 169.005 46.4609 133.673 83.1178 133.673C119.775 133.673 149.598 169.005 149.598 212.434C149.598 225.469 146.855 238.382 141.668 249.774C141.582 249.963 141.507 250.154 141.437 250.348H121.105C113.031 250.348 106.461 258.13 106.461 267.698V275.547C106.461 279.082 107.362 282.369 108.901 285.115C108.681 285.187 108.462 285.27 108.246 285.375C101.823 288.484 95.0864 290.337 88.1664 290.949V236.258L108.41 212.274C110.699 209.563 110.699 205.167 108.41 202.457C106.121 199.746 102.412 199.746 100.123 202.457L88.1664 216.623V198.505C88.1664 194.671 85.5435 191.563 82.3067 191.563C79.0706 191.563 76.4477 194.671 76.4477 198.505V240.239L65.1758 226.889C62.8867 224.177 59.1773 224.176 56.889 226.889C54.6008 229.6 54.6008 233.995 56.889 236.706L76.447 259.878V290.799C42.9101 286.82 16.6375 253.196 16.6375 212.434ZM88.1657 304.883C94.4096 304.414 100.529 303.072 106.46 300.874V304.214C106.46 313.781 113.029 321.563 121.104 321.563H148.303V331.791H108.089C100.884 331.791 95.0221 338.736 95.0221 347.272V351.743C93.7717 351.838 92.5329 352.033 91.3116 352.354C90.3169 351.307 89.2643 350.352 88.1651 349.49L88.1657 304.883ZM22.4164 389.116C17.5328 383.687 14.9234 376.153 15.2039 368.116C15.693 354.144 25.3094 342.693 37.0969 342.047C46.0976 341.558 54.2797 347.078 58.5094 356.46C59.9578 359.673 63.2539 361.014 66.0633 359.531C68.163 358.422 70.3953 357.86 72.6989 357.86C77.5009 357.86 82.0406 360.355 85.1548 364.705C86.7835 366.982 89.4584 367.77 91.7977 366.662C93.4453 365.883 95.172 365.52 96.9436 365.569C99.1927 369.93 103.202 372.874 107.799 372.994C108.893 375.103 109.549 377.504 109.689 379.942C109.879 383.221 109.22 386.394 107.812 389.116H22.4164Z" stroke="white" stroke-width="6" mask="url(#path-1-outside-1_3_1075)"/>
<path d="M220.987 163.504H279.591C282.828 163.504 285.451 160.396 285.451 156.562C285.451 152.729 282.828 149.621 279.591 149.621H220.987C217.11 149.621 213.936 146.007 213.91 141.564C213.91 141.543 213.91 141.461 213.91 141.441C213.91 131.883 220.477 123.947 228.55 123.749C231.371 123.68 233.75 121.239 234.21 117.938C236.599 100.79 248.996 88.3424 263.688 88.3424C278.454 88.3424 290.863 100.859 293.192 118.104C293.692 121.807 296.588 124.366 299.721 123.893C300.482 123.778 301.092 123.724 301.645 123.724C306.932 123.724 311.879 127.09 314.557 132.508C315.609 134.635 317.533 135.942 319.614 135.942H335.679C338.862 135.942 341.452 139.01 341.452 142.781C341.452 146.552 338.863 149.621 335.679 149.621H303.027C299.791 149.621 297.168 152.729 297.168 156.562C297.168 160.396 299.791 163.504 303.027 163.504H335.679C345.323 163.504 353.171 154.208 353.171 142.781C353.171 131.355 345.323 122.058 335.679 122.058H322.704C318.096 115.052 311.141 110.604 303.638 109.93C298.556 89.0518 282.496 74.458 263.688 74.458C244.748 74.458 228.547 89.3204 223.611 110.483C211.444 113.409 202.19 126.282 202.19 141.44L202.191 141.659C202.262 153.704 210.694 163.504 220.987 163.504Z" stroke="white" stroke-width="6" mask="url(#path-1-outside-1_3_1075)"/>
</svg>
