<svg width="406" height="406" viewBox="0 0 406 406" fill="none" xmlns="http://www.w3.org/2000/svg">
<mask id="path-1-outside-1_3_1076" maskUnits="userSpaceOnUse" x="0" y="0" width="406" height="406" fill="black">
<rect fill="white" width="406" height="406"/>
<path d="M203 318.775C219.269 318.775 232.505 305.539 232.505 289.269C232.505 273 219.269 259.765 203 259.765C186.73 259.765 173.495 273.001 173.495 289.27C173.495 305.54 186.73 318.775 203 318.775ZM203 271.483C212.808 271.483 220.787 279.462 220.787 289.27C220.787 299.078 212.808 307.056 203 307.056C193.192 307.056 185.213 299.077 185.213 289.269C185.213 279.462 193.192 271.483 203 271.483Z"/>
<path d="M379.086 355.172H359.727C360.683 335.428 366.429 325.406 371.32 320.414C373.584 318.102 373.546 314.392 371.234 312.128C368.924 309.864 365.215 309.9 362.949 312.213C357.605 317.667 353.669 324.892 351.159 333.816C347.385 327.643 343.702 323.786 343.388 323.461C341.136 321.137 337.427 321.077 335.102 323.329C332.777 325.581 332.718 329.29 334.97 331.615C335.083 331.731 344.858 341.965 347.312 355.172H307.523C310.159 349.561 314.282 342.091 319.495 336.877C321.784 334.589 321.784 330.879 319.495 328.591C317.206 326.303 313.497 326.303 311.209 328.591C306.832 332.968 303.169 338.457 300.312 343.569C295.23 333.185 287.367 326.552 286.88 326.147C284.396 324.084 280.716 324.426 278.646 326.906C276.577 329.385 276.909 333.077 279.382 335.154C279.498 335.251 289.37 343.672 292.143 355.172H259.132V289.27C259.132 284.843 258.601 280.539 257.627 276.405L349.423 249.243C352.526 248.325 354.297 245.065 353.378 241.962C352.46 238.859 349.202 237.089 346.098 238.006L253.758 265.329C249.925 257.236 244.212 250.206 237.187 244.793L368.394 205.968C369.512 205.637 370.674 205.468 371.852 205.468C377.21 205.468 382.02 209.064 383.545 214.208C384.47 217.332 384.121 220.629 382.565 223.493C381.009 226.356 378.431 228.441 375.306 229.365L368.416 231.404C365.313 232.323 363.542 235.582 364.461 238.686C365.379 241.788 368.636 243.559 371.741 242.641L378.63 240.602C384.756 238.79 389.81 234.701 392.862 229.088C395.913 223.475 396.595 217.01 394.782 210.88C391.791 200.793 382.362 193.749 371.852 193.749C369.545 193.749 367.259 194.08 365.064 194.732L326.297 206.203L314.234 165.435C312.874 160.84 309.807 157.05 305.595 154.761C301.385 152.473 296.533 151.962 291.941 153.322C282.455 156.129 277.021 166.13 279.828 175.615L291.891 216.383L222.904 236.797C216.713 234.44 210.007 233.138 202.999 233.138C184.46 233.138 167.999 242.178 157.772 256.075L100.536 273.011L88.4711 232.239C87.1117 227.644 84.0437 223.854 79.8328 221.565C75.6219 219.277 70.7711 218.766 66.1781 220.126C56.693 222.933 51.2594 232.934 54.0656 242.419L66.1305 283.191L27.3687 294.661C14.7227 298.403 7.47656 311.734 11.2188 324.385C14.2094 334.471 23.6359 341.515 34.1406 341.515C36.4359 341.515 38.7242 341.182 40.9359 340.525L146.87 309.179V355.172H82.125C78.8891 355.172 76.2656 357.795 76.2656 361.031C76.2656 364.267 78.8891 366.89 82.125 366.89H379.086C382.348 366.89 385.409 368.157 387.709 370.463C390.012 372.767 391.281 375.829 391.281 379.086C391.281 385.81 385.81 391.281 379.086 391.281H26.9141C23.6578 391.281 20.5961 390.012 18.2914 387.708C15.9867 385.404 14.7188 382.342 14.7188 379.086C14.7188 372.361 20.1891 366.89 26.9141 366.89H58.6875C61.9234 366.89 64.5469 364.267 64.5469 361.031C64.5469 357.795 61.9234 355.172 58.6875 355.172H26.9141C13.7273 355.172 3 365.9 3 379.086C3 385.471 5.48828 391.477 10.0055 395.994C14.5227 400.511 20.5281 403 26.9141 403H379.086C392.273 403 403 392.272 403 379.086C403 372.7 400.512 366.694 396 362.181C391.49 357.661 385.482 355.172 379.086 355.172ZM291.066 172.292C290.093 169.003 291.977 165.534 295.266 164.561C295.851 164.387 296.448 164.302 297.041 164.302C298.064 164.302 299.077 164.557 300.002 165.06C301.462 165.854 302.526 167.168 302.998 168.761L315.06 209.529L303.13 213.059L291.066 172.292ZM69.5039 231.365C70.0891 231.192 70.6852 231.107 71.2781 231.107C72.3016 231.107 73.3148 231.362 74.2398 231.864C75.7 232.657 76.7633 233.972 77.2352 235.565L89.2992 276.336L77.368 279.866L65.3039 239.096C64.3305 235.807 66.2148 232.338 69.5039 231.365ZM203 244.858C227.489 244.858 247.412 264.781 247.412 289.27V355.169H158.588V289.27C158.588 264.781 178.512 244.858 203 244.858ZM37.6055 329.289C36.4719 329.625 35.3063 329.796 34.1406 329.796C28.7859 329.796 23.9805 326.2 22.4547 321.056C20.5477 314.606 24.243 307.807 30.6938 305.899L150.084 270.572C148.009 276.424 146.87 282.715 146.87 289.268V296.957L37.6055 329.289Z"/>
<path d="M319.134 85.7617H361.619C384.437 85.7617 403 67.1984 403 44.3812C403 21.5633 384.437 3 361.619 3C346.424 3 332.772 11.1438 325.52 24.1406C323.43 23.7023 321.296 23.482 319.134 23.482C301.963 23.482 287.994 37.4516 287.994 54.6219C287.994 71.793 301.963 85.7617 319.134 85.7617ZM319.134 35.2008C321.651 35.2008 324.105 35.6797 326.432 36.6242C327.877 37.2102 329.495 37.1977 330.931 36.5867C332.365 35.9766 333.497 34.8195 334.076 33.3719C338.611 22.0406 349.422 14.7188 361.619 14.7188C377.975 14.7188 391.281 28.025 391.281 44.3812C391.281 60.7367 377.975 74.043 361.619 74.043H319.134C308.425 74.043 299.713 65.3305 299.713 54.6219C299.713 43.9133 308.425 35.2008 319.134 35.2008Z"/>
<path d="M61.8375 156.498H96.4703C111.064 156.498 122.938 144.624 122.938 130.03C122.938 115.437 111.064 103.564 96.4703 103.564C94.8992 103.564 93.3461 103.701 91.8195 103.973C85.6266 93.4352 74.3547 86.8672 61.8383 86.8672C42.6414 86.8672 27.0234 102.485 27.0234 121.682C27.0234 140.879 42.6398 156.498 61.8375 156.498ZM61.8375 98.5859C71.3352 98.5859 79.7531 104.288 83.2836 113.111C83.8633 114.559 84.9953 115.716 86.4305 116.326C87.8656 116.937 89.4844 116.95 90.9289 116.363C92.6938 115.646 94.5586 115.282 96.4703 115.282C104.602 115.282 111.219 121.898 111.219 130.03C111.219 138.162 104.602 144.778 96.4703 144.778H61.8375C49.1023 144.778 38.7414 134.417 38.7414 121.682C38.7414 108.947 49.1016 98.5859 61.8375 98.5859Z"/>
</mask>
<path d="M203 318.775C219.269 318.775 232.505 305.539 232.505 289.269C232.505 273 219.269 259.765 203 259.765C186.73 259.765 173.495 273.001 173.495 289.27C173.495 305.54 186.73 318.775 203 318.775ZM203 271.483C212.808 271.483 220.787 279.462 220.787 289.27C220.787 299.078 212.808 307.056 203 307.056C193.192 307.056 185.213 299.077 185.213 289.269C185.213 279.462 193.192 271.483 203 271.483Z" stroke="white" stroke-width="6" mask="url(#path-1-outside-1_3_1076)"/>
<path d="M379.086 355.172H359.727C360.683 335.428 366.429 325.406 371.32 320.414C373.584 318.102 373.546 314.392 371.234 312.128C368.924 309.864 365.215 309.9 362.949 312.213C357.605 317.667 353.669 324.892 351.159 333.816C347.385 327.643 343.702 323.786 343.388 323.461C341.136 321.137 337.427 321.077 335.102 323.329C332.777 325.581 332.718 329.29 334.97 331.615C335.083 331.731 344.858 341.965 347.312 355.172H307.523C310.159 349.561 314.282 342.091 319.495 336.877C321.784 334.589 321.784 330.879 319.495 328.591C317.206 326.303 313.497 326.303 311.209 328.591C306.832 332.968 303.169 338.457 300.312 343.569C295.23 333.185 287.367 326.552 286.88 326.147C284.396 324.084 280.716 324.426 278.646 326.906C276.577 329.385 276.909 333.077 279.382 335.154C279.498 335.251 289.37 343.672 292.143 355.172H259.132V289.27C259.132 284.843 258.601 280.539 257.627 276.405L349.423 249.243C352.526 248.325 354.297 245.065 353.378 241.962C352.46 238.859 349.202 237.089 346.098 238.006L253.758 265.329C249.925 257.236 244.212 250.206 237.187 244.793L368.394 205.968C369.512 205.637 370.674 205.468 371.852 205.468C377.21 205.468 382.02 209.064 383.545 214.208C384.47 217.332 384.121 220.629 382.565 223.493C381.009 226.356 378.431 228.441 375.306 229.365L368.416 231.404C365.313 232.323 363.542 235.582 364.461 238.686C365.379 241.788 368.636 243.559 371.741 242.641L378.63 240.602C384.756 238.79 389.81 234.701 392.862 229.088C395.913 223.475 396.595 217.01 394.782 210.88C391.791 200.793 382.362 193.749 371.852 193.749C369.545 193.749 367.259 194.08 365.064 194.732L326.297 206.203L314.234 165.435C312.874 160.84 309.807 157.05 305.595 154.761C301.385 152.473 296.533 151.962 291.941 153.322C282.455 156.129 277.021 166.13 279.828 175.615L291.891 216.383L222.904 236.797C216.713 234.44 210.007 233.138 202.999 233.138C184.46 233.138 167.999 242.178 157.772 256.075L100.536 273.011L88.4711 232.239C87.1117 227.644 84.0437 223.854 79.8328 221.565C75.6219 219.277 70.7711 218.766 66.1781 220.126C56.693 222.933 51.2594 232.934 54.0656 242.419L66.1305 283.191L27.3687 294.661C14.7227 298.403 7.47656 311.734 11.2188 324.385C14.2094 334.471 23.6359 341.515 34.1406 341.515C36.4359 341.515 38.7242 341.182 40.9359 340.525L146.87 309.179V355.172H82.125C78.8891 355.172 76.2656 357.795 76.2656 361.031C76.2656 364.267 78.8891 366.89 82.125 366.89H379.086C382.348 366.89 385.409 368.157 387.709 370.463C390.012 372.767 391.281 375.829 391.281 379.086C391.281 385.81 385.81 391.281 379.086 391.281H26.9141C23.6578 391.281 20.5961 390.012 18.2914 387.708C15.9867 385.404 14.7188 382.342 14.7188 379.086C14.7188 372.361 20.1891 366.89 26.9141 366.89H58.6875C61.9234 366.89 64.5469 364.267 64.5469 361.031C64.5469 357.795 61.9234 355.172 58.6875 355.172H26.9141C13.7273 355.172 3 365.9 3 379.086C3 385.471 5.48828 391.477 10.0055 395.994C14.5227 400.511 20.5281 403 26.9141 403H379.086C392.273 403 403 392.272 403 379.086C403 372.7 400.512 366.694 396 362.181C391.49 357.661 385.482 355.172 379.086 355.172ZM291.066 172.292C290.093 169.003 291.977 165.534 295.266 164.561C295.851 164.387 296.448 164.302 297.041 164.302C298.064 164.302 299.077 164.557 300.002 165.06C301.462 165.854 302.526 167.168 302.998 168.761L315.06 209.529L303.13 213.059L291.066 172.292ZM69.5039 231.365C70.0891 231.192 70.6852 231.107 71.2781 231.107C72.3016 231.107 73.3148 231.362 74.2398 231.864C75.7 232.657 76.7633 233.972 77.2352 235.565L89.2992 276.336L77.368 279.866L65.3039 239.096C64.3305 235.807 66.2148 232.338 69.5039 231.365ZM203 244.858C227.489 244.858 247.412 264.781 247.412 289.27V355.169H158.588V289.27C158.588 264.781 178.512 244.858 203 244.858ZM37.6055 329.289C36.4719 329.625 35.3063 329.796 34.1406 329.796C28.7859 329.796 23.9805 326.2 22.4547 321.056C20.5477 314.606 24.243 307.807 30.6938 305.899L150.084 270.572C148.009 276.424 146.87 282.715 146.87 289.268V296.957L37.6055 329.289Z" stroke="white" stroke-width="6" mask="url(#path-1-outside-1_3_1076)"/>
<path d="M319.134 85.7617H361.619C384.437 85.7617 403 67.1984 403 44.3812C403 21.5633 384.437 3 361.619 3C346.424 3 332.772 11.1438 325.52 24.1406C323.43 23.7023 321.296 23.482 319.134 23.482C301.963 23.482 287.994 37.4516 287.994 54.6219C287.994 71.793 301.963 85.7617 319.134 85.7617ZM319.134 35.2008C321.651 35.2008 324.105 35.6797 326.432 36.6242C327.877 37.2102 329.495 37.1977 330.931 36.5867C332.365 35.9766 333.497 34.8195 334.076 33.3719C338.611 22.0406 349.422 14.7188 361.619 14.7188C377.975 14.7188 391.281 28.025 391.281 44.3812C391.281 60.7367 377.975 74.043 361.619 74.043H319.134C308.425 74.043 299.713 65.3305 299.713 54.6219C299.713 43.9133 308.425 35.2008 319.134 35.2008Z" stroke="white" stroke-width="6" mask="url(#path-1-outside-1_3_1076)"/>
<path d="M61.8375 156.498H96.4703C111.064 156.498 122.938 144.624 122.938 130.03C122.938 115.437 111.064 103.564 96.4703 103.564C94.8992 103.564 93.3461 103.701 91.8195 103.973C85.6266 93.4352 74.3547 86.8672 61.8383 86.8672C42.6414 86.8672 27.0234 102.485 27.0234 121.682C27.0234 140.879 42.6398 156.498 61.8375 156.498ZM61.8375 98.5859C71.3352 98.5859 79.7531 104.288 83.2836 113.111C83.8633 114.559 84.9953 115.716 86.4305 116.326C87.8656 116.937 89.4844 116.95 90.9289 116.363C92.6938 115.646 94.5586 115.282 96.4703 115.282C104.602 115.282 111.219 121.898 111.219 130.03C111.219 138.162 104.602 144.778 96.4703 144.778H61.8375C49.1023 144.778 38.7414 134.417 38.7414 121.682C38.7414 108.947 49.1016 98.5859 61.8375 98.5859Z" stroke="white" stroke-width="6" mask="url(#path-1-outside-1_3_1076)"/>
</svg>
