<svg width="406" height="407" viewBox="0 0 406 407" fill="none" xmlns="http://www.w3.org/2000/svg">
<mask id="path-1-outside-1_3_511" maskUnits="userSpaceOnUse" x="0" y="0" width="406" height="407" fill="black">
<rect fill="white" width="406" height="407"/>
<path d="M397.141 305.69C400.377 305.69 403 302.653 403 298.905V285.782C403 272.516 394.253 261.724 383.502 261.724H374.02V247.82C374.02 238.092 367.184 230.177 358.784 230.177H311.621C303.22 230.177 296.385 238.092 296.385 247.82V284.028C254.253 278.336 201.809 278.327 159.606 284.028V247.82C159.606 238.092 152.771 230.177 144.371 230.177H140.644C172.765 207.526 208.688 176.81 236.696 146.895L255.089 176.176C260.037 184.056 269.591 185.777 276.371 180.066L314.513 147.939C314.513 147.939 314.513 147.939 314.513 147.939C321.306 142.217 322.813 131.161 317.871 123.292L310.809 112.048L318.478 105.59C327.172 98.2651 328.763 83.5798 322.025 72.8517L290.221 22.2157C283.482 11.4894 270.928 8.71827 262.233 16.0419L254.564 22.5025L247.502 11.2596C242.561 3.3904 233.014 1.64701 226.219 7.36843L188.078 39.4949C181.285 45.2163 179.778 56.2728 184.719 64.1411L203.111 93.4213C166.137 117.526 123.73 153.236 92.4976 186.593L78.9687 165.057C71.35 152.927 56.6094 150.231 46.1367 159.056L21.3665 179.919C10.8868 188.748 8.56261 205.804 16.1852 217.941L18.3837 221.441L10.7157 227.9C1.84778 235.368 0.567315 250.129 7.16808 260.638L38.9727 311.272C42.4524 316.814 47.5524 320.337 52.9914 321.274V348.395C52.9914 361.661 61.7383 372.454 72.489 372.454H81.9718V386.357C81.9718 396.086 88.807 404 97.2069 404H144.371C152.772 404 159.606 396.085 159.606 386.357V350.153C176.258 352.397 194.978 353.807 214.205 354.255C214.246 354.257 214.286 354.257 214.325 354.257C217.507 354.257 220.118 351.308 220.182 347.607C220.247 343.861 217.677 340.762 214.441 340.687C195.054 340.235 176.221 338.79 159.606 336.489V297.687C201.057 291.934 254.075 291.814 296.385 297.687V336.489C279.772 338.79 260.938 340.235 241.55 340.687C238.315 340.762 235.744 343.861 235.809 347.606C235.874 351.308 238.483 354.257 241.666 354.257C241.706 354.257 241.746 354.257 241.786 354.255C261.014 353.807 279.734 352.397 296.385 350.153V386.357C296.385 396.086 303.221 404 311.621 404H358.784C367.185 404 374.02 396.085 374.02 386.357V372.454H383.502C394.253 372.454 403 361.661 403 348.395V330.572C403 326.824 400.377 323.787 397.141 323.787C393.905 323.787 391.281 326.824 391.281 330.572V348.395C391.281 354.08 387.72 358.883 383.503 358.883H374.02V275.296H383.503C387.719 275.296 391.281 280.098 391.281 285.783V298.906C391.28 302.653 393.905 305.69 397.141 305.69ZM269.126 27.017C272.535 24.1473 277.857 25.603 280.742 30.1998L312.547 80.8358C315.435 85.4318 314.993 91.743 311.584 94.6146L303.915 101.073C299.167 93.5118 266.283 41.1586 261.457 33.4758L269.126 27.017ZM194.197 56.1597C193.076 54.3747 193.431 51.77 194.972 50.4718L233.113 18.3444C234.661 17.0425 236.907 17.4632 238.024 19.2428C240.396 23.0191 295.053 110.038 297.884 114.545C297.885 114.547 297.886 114.549 297.888 114.551L308.393 131.275C309.514 133.06 309.16 135.665 307.618 136.963L269.476 169.091C267.928 170.394 265.701 170.001 264.566 168.192C262.254 164.513 196.986 60.601 194.197 56.1597ZM210.049 104.47L229.759 135.849C199.274 168.614 156.513 204.835 119.144 229.015L99.4366 197.641C129.84 164.962 172.626 128.683 210.049 104.47ZM52.9914 285.782V307.321C51.2484 306.569 49.6375 305.178 48.4516 303.289L16.647 252.654C13.6274 247.848 14.3024 241.662 17.6102 238.875L25.2782 232.416C26.2079 233.897 33.4868 245.485 54.0031 278.15C53.3047 280.72 52.9914 283.373 52.9914 285.782ZM81.9718 358.882H72.489C68.2734 358.882 64.7109 354.08 64.7109 348.394C64.7109 342.264 64.7109 292.172 64.7109 285.781C64.7109 283.411 65.3867 280.851 66.725 278.841C68.3187 276.442 70.4742 275.294 72.489 275.294H81.971V358.882H81.9718ZM81.9718 247.819V261.723H72.489C72.0132 261.723 71.5422 261.751 71.0742 261.793C70.9914 261.801 70.9086 261.808 70.8258 261.817C67.1976 262.197 63.8508 263.806 61.0594 266.308L25.6634 209.956C21.8415 203.873 23.0063 195.32 28.2602 190.894L53.0305 170.031C58.2609 165.622 65.6836 166.976 69.4906 173.039C73.757 179.831 100.813 222.907 105.379 230.175H97.2062C88.807 230.175 81.9718 238.091 81.9718 247.819ZM147.887 386.356C147.887 388.563 146.277 390.427 144.372 390.427H97.2077C95.3023 390.427 93.6921 388.563 93.6921 386.356C93.6921 379.97 93.6921 251.983 93.6921 247.82C93.6921 245.613 95.3023 243.749 97.2077 243.749C109.132 243.749 115.715 243.749 119.143 243.749C121.613 243.749 122.444 243.749 122.451 243.749C125.877 243.749 132.457 243.749 144.372 243.749C146.277 243.749 147.887 245.613 147.887 247.82C147.887 256.217 147.887 381.193 147.887 386.356ZM362.301 386.356C362.301 388.563 360.691 390.427 358.785 390.427H311.621C309.716 390.427 308.106 388.563 308.106 386.356V247.82C308.106 245.613 309.716 243.749 311.621 243.749H358.785C360.691 243.749 362.301 245.613 362.301 247.82C362.301 256.178 362.301 381.872 362.301 386.356Z"/>
</mask>
<path d="M397.141 305.69C400.377 305.69 403 302.653 403 298.905V285.782C403 272.516 394.253 261.724 383.502 261.724H374.02V247.82C374.02 238.092 367.184 230.177 358.784 230.177H311.621C303.22 230.177 296.385 238.092 296.385 247.82V284.028C254.253 278.336 201.809 278.327 159.606 284.028V247.82C159.606 238.092 152.771 230.177 144.371 230.177H140.644C172.765 207.526 208.688 176.81 236.696 146.895L255.089 176.176C260.037 184.056 269.591 185.777 276.371 180.066L314.513 147.939C314.513 147.939 314.513 147.939 314.513 147.939C321.306 142.217 322.813 131.161 317.871 123.292L310.809 112.048L318.478 105.59C327.172 98.2651 328.763 83.5798 322.025 72.8517L290.221 22.2157C283.482 11.4894 270.928 8.71827 262.233 16.0419L254.564 22.5025L247.502 11.2596C242.561 3.3904 233.014 1.64701 226.219 7.36843L188.078 39.4949C181.285 45.2163 179.778 56.2728 184.719 64.1411L203.111 93.4213C166.137 117.526 123.73 153.236 92.4976 186.593L78.9687 165.057C71.35 152.927 56.6094 150.231 46.1367 159.056L21.3665 179.919C10.8868 188.748 8.56261 205.804 16.1852 217.941L18.3837 221.441L10.7157 227.9C1.84778 235.368 0.567315 250.129 7.16808 260.638L38.9727 311.272C42.4524 316.814 47.5524 320.337 52.9914 321.274V348.395C52.9914 361.661 61.7383 372.454 72.489 372.454H81.9718V386.357C81.9718 396.086 88.807 404 97.2069 404H144.371C152.772 404 159.606 396.085 159.606 386.357V350.153C176.258 352.397 194.978 353.807 214.205 354.255C214.246 354.257 214.286 354.257 214.325 354.257C217.507 354.257 220.118 351.308 220.182 347.607C220.247 343.861 217.677 340.762 214.441 340.687C195.054 340.235 176.221 338.79 159.606 336.489V297.687C201.057 291.934 254.075 291.814 296.385 297.687V336.489C279.772 338.79 260.938 340.235 241.55 340.687C238.315 340.762 235.744 343.861 235.809 347.606C235.874 351.308 238.483 354.257 241.666 354.257C241.706 354.257 241.746 354.257 241.786 354.255C261.014 353.807 279.734 352.397 296.385 350.153V386.357C296.385 396.086 303.221 404 311.621 404H358.784C367.185 404 374.02 396.085 374.02 386.357V372.454H383.502C394.253 372.454 403 361.661 403 348.395V330.572C403 326.824 400.377 323.787 397.141 323.787C393.905 323.787 391.281 326.824 391.281 330.572V348.395C391.281 354.08 387.72 358.883 383.503 358.883H374.02V275.296H383.503C387.719 275.296 391.281 280.098 391.281 285.783V298.906C391.28 302.653 393.905 305.69 397.141 305.69ZM269.126 27.017C272.535 24.1473 277.857 25.603 280.742 30.1998L312.547 80.8358C315.435 85.4318 314.993 91.743 311.584 94.6146L303.915 101.073C299.167 93.5118 266.283 41.1586 261.457 33.4758L269.126 27.017ZM194.197 56.1597C193.076 54.3747 193.431 51.77 194.972 50.4718L233.113 18.3444C234.661 17.0425 236.907 17.4632 238.024 19.2428C240.396 23.0191 295.053 110.038 297.884 114.545C297.885 114.547 297.886 114.549 297.888 114.551L308.393 131.275C309.514 133.06 309.16 135.665 307.618 136.963L269.476 169.091C267.928 170.394 265.701 170.001 264.566 168.192C262.254 164.513 196.986 60.601 194.197 56.1597ZM210.049 104.47L229.759 135.849C199.274 168.614 156.513 204.835 119.144 229.015L99.4366 197.641C129.84 164.962 172.626 128.683 210.049 104.47ZM52.9914 285.782V307.321C51.2484 306.569 49.6375 305.178 48.4516 303.289L16.647 252.654C13.6274 247.848 14.3024 241.662 17.6102 238.875L25.2782 232.416C26.2079 233.897 33.4868 245.485 54.0031 278.15C53.3047 280.72 52.9914 283.373 52.9914 285.782ZM81.9718 358.882H72.489C68.2734 358.882 64.7109 354.08 64.7109 348.394C64.7109 342.264 64.7109 292.172 64.7109 285.781C64.7109 283.411 65.3867 280.851 66.725 278.841C68.3187 276.442 70.4742 275.294 72.489 275.294H81.971V358.882H81.9718ZM81.9718 247.819V261.723H72.489C72.0132 261.723 71.5422 261.751 71.0742 261.793C70.9914 261.801 70.9086 261.808 70.8258 261.817C67.1976 262.197 63.8508 263.806 61.0594 266.308L25.6634 209.956C21.8415 203.873 23.0063 195.32 28.2602 190.894L53.0305 170.031C58.2609 165.622 65.6836 166.976 69.4906 173.039C73.757 179.831 100.813 222.907 105.379 230.175H97.2062C88.807 230.175 81.9718 238.091 81.9718 247.819ZM147.887 386.356C147.887 388.563 146.277 390.427 144.372 390.427H97.2077C95.3023 390.427 93.6921 388.563 93.6921 386.356C93.6921 379.97 93.6921 251.983 93.6921 247.82C93.6921 245.613 95.3023 243.749 97.2077 243.749C109.132 243.749 115.715 243.749 119.143 243.749C121.613 243.749 122.444 243.749 122.451 243.749C125.877 243.749 132.457 243.749 144.372 243.749C146.277 243.749 147.887 245.613 147.887 247.82C147.887 256.217 147.887 381.193 147.887 386.356ZM362.301 386.356C362.301 388.563 360.691 390.427 358.785 390.427H311.621C309.716 390.427 308.106 388.563 308.106 386.356V247.82C308.106 245.613 309.716 243.749 311.621 243.749H358.785C360.691 243.749 362.301 245.613 362.301 247.82C362.301 256.178 362.301 381.872 362.301 386.356Z" stroke="white" stroke-width="6" mask="url(#path-1-outside-1_3_511)"/>
</svg>
