<svg width="406" height="406" viewBox="0 0 406 406" fill="none" xmlns="http://www.w3.org/2000/svg">
<mask id="path-1-outside-1_3_616" maskUnits="userSpaceOnUse" x="0" y="0" width="406" height="406" fill="black">
<rect fill="white" width="406" height="406"/>
<path d="M398.084 289.344L396.284 285.804C389.5 272.464 378.216 263.071 365.327 260.033L350.615 256.565V168.201H388.687C396.526 168.201 402.902 160.644 402.902 151.356V19.8457C402.902 10.5563 396.525 3 388.687 3H277.71C269.871 3 263.494 10.5572 263.494 19.8457V69.7321C263.494 73.4612 266.045 76.4848 269.193 76.4848C272.34 76.4848 274.891 73.4612 274.891 69.7321V19.8457C274.891 18.0034 276.156 16.5045 277.711 16.5045H388.688C390.243 16.5045 391.508 18.0034 391.508 19.8457V151.356C391.508 153.199 390.243 154.698 388.688 154.698H277.71C276.155 154.698 274.89 153.199 274.89 151.356V113.631C274.89 109.902 272.34 106.879 269.192 106.879C266.044 106.879 263.493 109.902 263.493 113.631V151.356C263.493 160.646 269.871 168.202 277.709 168.202H320.882V249.56L313.319 247.778C302.882 245.318 292.706 237.853 285.959 232.451L248.269 202.279C233.929 190.8 217.203 184.732 199.898 184.732H130.719C107.7 184.732 86.0411 195.335 69.7341 214.587C59.4154 226.77 46.4264 235.079 32.171 238.617L23.9898 240.647C11.8273 243.665 3 256.545 3 271.271V336.669C3 344.47 6.8867 351.558 12.9031 354.726L35.5999 366.68C36.9725 375.185 40.4303 383.307 45.9756 389.879C53.3451 398.612 63.0255 402.979 72.7068 402.979C82.388 402.979 92.0676 398.612 99.4379 389.879C104.178 384.262 107.384 377.51 109.075 370.357H298.321C300.013 377.51 303.22 384.262 307.96 389.879C315.1 398.34 324.592 403 334.691 403C344.788 403 354.282 398.34 361.423 389.879C366.163 384.262 369.369 377.51 371.06 370.357H381.87C393.521 370.357 403 359.124 403 345.318V310.293C402.998 302.911 401.298 295.667 398.084 289.344ZM332.278 168.201H339.219V253.88L332.278 252.244V168.201ZM91.3786 380.33C86.3911 386.24 79.7598 389.495 72.706 389.495C65.6521 389.495 59.0209 386.24 54.0334 380.33C46.0326 370.849 44.253 356.75 48.6858 345.209C48.7217 345.117 48.7561 345.023 48.792 344.931C48.9272 344.588 49.0701 344.249 49.2162 343.912C49.285 343.753 49.3537 343.595 49.4256 343.437C49.5576 343.145 49.6951 342.854 49.8358 342.565C49.9326 342.366 50.0318 342.169 50.1326 341.973C50.2631 341.718 50.3951 341.464 50.5326 341.214C50.6568 340.987 50.785 340.763 50.9147 340.54C51.0428 340.318 51.1701 340.096 51.3029 339.879C51.4553 339.629 51.6139 339.385 51.7732 339.141C51.8975 338.95 52.0186 338.757 52.1467 338.569C52.3342 338.294 52.5303 338.026 52.7256 337.758C52.8373 337.605 52.9443 337.448 53.0584 337.297C53.349 336.915 53.6482 336.54 53.956 336.173C53.9826 336.141 54.0068 336.108 54.0334 336.076C54.092 336.007 54.1537 335.942 54.2131 335.874C54.474 335.57 54.7365 335.27 55.0045 334.982C55.074 334.907 55.1474 334.838 55.2178 334.763C55.4849 334.483 55.7537 334.204 56.0287 333.939C56.0545 333.914 56.0818 333.89 56.1076 333.865C65.7662 324.603 79.6966 324.614 89.3434 333.902C89.3543 333.914 89.3661 333.923 89.3778 333.934C89.6723 334.218 89.9606 334.516 90.2473 334.818C90.2989 334.872 90.352 334.923 90.4028 334.977C90.734 335.332 91.059 335.698 91.3778 336.075C91.7215 336.483 92.0528 336.902 92.3746 337.327C92.5161 337.514 92.6496 337.706 92.7864 337.895C92.9536 338.127 93.1215 338.359 93.2824 338.595C93.4629 338.861 93.6371 339.131 93.809 339.402C93.9059 339.553 94.002 339.704 94.0957 339.857C94.3043 340.198 94.5074 340.542 94.7035 340.891C94.7371 340.951 94.77 341.011 94.8028 341.07C101.506 353.203 100.365 369.68 91.3786 380.33ZM353.363 380.33C348.374 386.24 341.743 389.495 334.689 389.495C327.635 389.495 321.005 386.24 316.018 380.33C307.029 369.68 305.889 353.2 312.593 341.068C312.625 341.01 312.657 340.952 312.689 340.894C312.885 340.544 313.089 340.199 313.299 339.856C313.392 339.704 313.487 339.554 313.583 339.405C313.756 339.133 313.931 338.862 314.113 338.594C314.273 338.36 314.439 338.131 314.605 337.901C314.743 337.709 314.878 337.515 315.021 337.327C315.343 336.902 315.675 336.484 316.018 336.076C321.006 330.166 327.636 326.911 334.69 326.911C341.744 326.911 348.375 330.166 353.363 336.076C353.706 336.484 354.038 336.903 354.36 337.328C354.502 337.515 354.635 337.708 354.773 337.898C354.94 338.129 355.107 338.36 355.267 338.595C355.449 338.862 355.623 339.132 355.795 339.404C355.892 339.554 355.988 339.705 356.081 339.858C356.29 340.2 356.494 340.543 356.689 340.892C356.723 340.952 356.756 341.011 356.788 341.07C363.49 353.202 362.349 369.681 353.363 380.33ZM391.604 345.318H391.602C391.602 351.678 387.236 356.852 381.869 356.852H372.488C372.264 347.058 369.347 337.714 364.097 330.053C364.062 330.001 364.028 329.948 363.992 329.896C363.667 329.426 363.331 328.966 362.988 328.509C362.901 328.392 362.818 328.272 362.73 328.155C362.367 327.682 361.992 327.218 361.611 326.761C361.546 326.683 361.487 326.602 361.421 326.525C356.512 320.708 350.491 316.687 343.926 314.743C340.942 313.859 337.846 313.405 334.689 313.405C332.165 313.405 329.678 313.696 327.257 314.265C319.992 315.972 313.314 320.179 307.958 326.525C307.894 326.601 307.836 326.68 307.772 326.757C307.389 327.217 307.013 327.682 306.65 328.157C306.564 328.269 306.484 328.386 306.4 328.499C306.054 328.96 305.714 329.424 305.386 329.898C305.353 329.946 305.323 329.995 305.29 330.043C300.036 337.705 297.116 347.054 296.892 356.853H110.503C110.279 347.042 107.353 337.682 102.086 330.013C102.061 329.977 102.038 329.941 102.014 329.905C101.67 329.407 101.313 328.919 100.95 328.436C100.882 328.347 100.82 328.255 100.752 328.166C100.326 327.61 99.8887 327.062 99.4363 326.526C97.5942 324.343 95.6067 322.432 93.5121 320.794C87.2262 315.882 79.9661 313.426 72.706 313.426C63.0255 313.426 53.3443 317.793 45.9748 326.526C45.5537 327.025 45.1467 327.537 44.7483 328.055C44.6303 328.209 44.517 328.365 44.4006 328.52C44.1194 328.897 43.8428 329.277 43.5733 329.662C43.4537 329.834 43.3342 330.006 43.217 330.18C42.9381 330.592 42.6662 331.008 42.4006 331.43C42.3178 331.561 42.2327 331.69 42.1522 331.822C41.4381 332.98 40.7756 334.175 40.1631 335.4C40.1459 335.434 40.1295 335.469 40.1124 335.503C39.8131 336.106 39.5264 336.717 39.2522 337.334C39.2444 337.352 39.2366 337.371 39.228 337.388C37.2413 341.868 35.9053 346.714 35.2928 351.74L17.5328 342.386C15.6281 341.382 14.3976 339.138 14.3976 336.669V271.271C14.3976 262.901 19.4156 255.58 26.3288 253.864L34.51 251.834C50.9318 247.757 65.8943 238.186 77.7802 224.153C91.9364 207.44 110.738 198.236 130.721 198.236H199.901C214.923 198.236 229.443 203.504 241.891 213.468L279.582 243.64C287.145 249.696 298.641 258.086 311.098 261.022L363.106 273.278C372.857 275.577 381.392 282.682 386.524 292.773L388.324 296.313C390.47 300.532 391.604 305.367 391.604 310.293V345.318Z"/>
</mask>
<path d="M398.084 289.344L396.284 285.804C389.5 272.464 378.216 263.071 365.327 260.033L350.615 256.565V168.201H388.687C396.526 168.201 402.902 160.644 402.902 151.356V19.8457C402.902 10.5563 396.525 3 388.687 3H277.71C269.871 3 263.494 10.5572 263.494 19.8457V69.7321C263.494 73.4612 266.045 76.4848 269.193 76.4848C272.34 76.4848 274.891 73.4612 274.891 69.7321V19.8457C274.891 18.0034 276.156 16.5045 277.711 16.5045H388.688C390.243 16.5045 391.508 18.0034 391.508 19.8457V151.356C391.508 153.199 390.243 154.698 388.688 154.698H277.71C276.155 154.698 274.89 153.199 274.89 151.356V113.631C274.89 109.902 272.34 106.879 269.192 106.879C266.044 106.879 263.493 109.902 263.493 113.631V151.356C263.493 160.646 269.871 168.202 277.709 168.202H320.882V249.56L313.319 247.778C302.882 245.318 292.706 237.853 285.959 232.451L248.269 202.279C233.929 190.8 217.203 184.732 199.898 184.732H130.719C107.7 184.732 86.0411 195.335 69.7341 214.587C59.4154 226.77 46.4264 235.079 32.171 238.617L23.9898 240.647C11.8273 243.665 3 256.545 3 271.271V336.669C3 344.47 6.8867 351.558 12.9031 354.726L35.5999 366.68C36.9725 375.185 40.4303 383.307 45.9756 389.879C53.3451 398.612 63.0255 402.979 72.7068 402.979C82.388 402.979 92.0676 398.612 99.4379 389.879C104.178 384.262 107.384 377.51 109.075 370.357H298.321C300.013 377.51 303.22 384.262 307.96 389.879C315.1 398.34 324.592 403 334.691 403C344.788 403 354.282 398.34 361.423 389.879C366.163 384.262 369.369 377.51 371.06 370.357H381.87C393.521 370.357 403 359.124 403 345.318V310.293C402.998 302.911 401.298 295.667 398.084 289.344ZM332.278 168.201H339.219V253.88L332.278 252.244V168.201ZM91.3786 380.33C86.3911 386.24 79.7598 389.495 72.706 389.495C65.6521 389.495 59.0209 386.24 54.0334 380.33C46.0326 370.849 44.253 356.75 48.6858 345.209C48.7217 345.117 48.7561 345.023 48.792 344.931C48.9272 344.588 49.0701 344.249 49.2162 343.912C49.285 343.753 49.3537 343.595 49.4256 343.437C49.5576 343.145 49.6951 342.854 49.8358 342.565C49.9326 342.366 50.0318 342.169 50.1326 341.973C50.2631 341.718 50.3951 341.464 50.5326 341.214C50.6568 340.987 50.785 340.763 50.9147 340.54C51.0428 340.318 51.1701 340.096 51.3029 339.879C51.4553 339.629 51.6139 339.385 51.7732 339.141C51.8975 338.95 52.0186 338.757 52.1467 338.569C52.3342 338.294 52.5303 338.026 52.7256 337.758C52.8373 337.605 52.9443 337.448 53.0584 337.297C53.349 336.915 53.6482 336.54 53.956 336.173C53.9826 336.141 54.0068 336.108 54.0334 336.076C54.092 336.007 54.1537 335.942 54.2131 335.874C54.474 335.57 54.7365 335.27 55.0045 334.982C55.074 334.907 55.1474 334.838 55.2178 334.763C55.4849 334.483 55.7537 334.204 56.0287 333.939C56.0545 333.914 56.0818 333.89 56.1076 333.865C65.7662 324.603 79.6966 324.614 89.3434 333.902C89.3543 333.914 89.3661 333.923 89.3778 333.934C89.6723 334.218 89.9606 334.516 90.2473 334.818C90.2989 334.872 90.352 334.923 90.4028 334.977C90.734 335.332 91.059 335.698 91.3778 336.075C91.7215 336.483 92.0528 336.902 92.3746 337.327C92.5161 337.514 92.6496 337.706 92.7864 337.895C92.9536 338.127 93.1215 338.359 93.2824 338.595C93.4629 338.861 93.6371 339.131 93.809 339.402C93.9059 339.553 94.002 339.704 94.0957 339.857C94.3043 340.198 94.5074 340.542 94.7035 340.891C94.7371 340.951 94.77 341.011 94.8028 341.07C101.506 353.203 100.365 369.68 91.3786 380.33ZM353.363 380.33C348.374 386.24 341.743 389.495 334.689 389.495C327.635 389.495 321.005 386.24 316.018 380.33C307.029 369.68 305.889 353.2 312.593 341.068C312.625 341.01 312.657 340.952 312.689 340.894C312.885 340.544 313.089 340.199 313.299 339.856C313.392 339.704 313.487 339.554 313.583 339.405C313.756 339.133 313.931 338.862 314.113 338.594C314.273 338.36 314.439 338.131 314.605 337.901C314.743 337.709 314.878 337.515 315.021 337.327C315.343 336.902 315.675 336.484 316.018 336.076C321.006 330.166 327.636 326.911 334.69 326.911C341.744 326.911 348.375 330.166 353.363 336.076C353.706 336.484 354.038 336.903 354.36 337.328C354.502 337.515 354.635 337.708 354.773 337.898C354.94 338.129 355.107 338.36 355.267 338.595C355.449 338.862 355.623 339.132 355.795 339.404C355.892 339.554 355.988 339.705 356.081 339.858C356.29 340.2 356.494 340.543 356.689 340.892C356.723 340.952 356.756 341.011 356.788 341.07C363.49 353.202 362.349 369.681 353.363 380.33ZM391.604 345.318H391.602C391.602 351.678 387.236 356.852 381.869 356.852H372.488C372.264 347.058 369.347 337.714 364.097 330.053C364.062 330.001 364.028 329.948 363.992 329.896C363.667 329.426 363.331 328.966 362.988 328.509C362.901 328.392 362.818 328.272 362.73 328.155C362.367 327.682 361.992 327.218 361.611 326.761C361.546 326.683 361.487 326.602 361.421 326.525C356.512 320.708 350.491 316.687 343.926 314.743C340.942 313.859 337.846 313.405 334.689 313.405C332.165 313.405 329.678 313.696 327.257 314.265C319.992 315.972 313.314 320.179 307.958 326.525C307.894 326.601 307.836 326.68 307.772 326.757C307.389 327.217 307.013 327.682 306.65 328.157C306.564 328.269 306.484 328.386 306.4 328.499C306.054 328.96 305.714 329.424 305.386 329.898C305.353 329.946 305.323 329.995 305.29 330.043C300.036 337.705 297.116 347.054 296.892 356.853H110.503C110.279 347.042 107.353 337.682 102.086 330.013C102.061 329.977 102.038 329.941 102.014 329.905C101.67 329.407 101.313 328.919 100.95 328.436C100.882 328.347 100.82 328.255 100.752 328.166C100.326 327.61 99.8887 327.062 99.4363 326.526C97.5942 324.343 95.6067 322.432 93.5121 320.794C87.2262 315.882 79.9661 313.426 72.706 313.426C63.0255 313.426 53.3443 317.793 45.9748 326.526C45.5537 327.025 45.1467 327.537 44.7483 328.055C44.6303 328.209 44.517 328.365 44.4006 328.52C44.1194 328.897 43.8428 329.277 43.5733 329.662C43.4537 329.834 43.3342 330.006 43.217 330.18C42.9381 330.592 42.6662 331.008 42.4006 331.43C42.3178 331.561 42.2327 331.69 42.1522 331.822C41.4381 332.98 40.7756 334.175 40.1631 335.4C40.1459 335.434 40.1295 335.469 40.1124 335.503C39.8131 336.106 39.5264 336.717 39.2522 337.334C39.2444 337.352 39.2366 337.371 39.228 337.388C37.2413 341.868 35.9053 346.714 35.2928 351.74L17.5328 342.386C15.6281 341.382 14.3976 339.138 14.3976 336.669V271.271C14.3976 262.901 19.4156 255.58 26.3288 253.864L34.51 251.834C50.9318 247.757 65.8943 238.186 77.7802 224.153C91.9364 207.44 110.738 198.236 130.721 198.236H199.901C214.923 198.236 229.443 203.504 241.891 213.468L279.582 243.64C287.145 249.696 298.641 258.086 311.098 261.022L363.106 273.278C372.857 275.577 381.392 282.682 386.524 292.773L388.324 296.313C390.47 300.532 391.604 305.367 391.604 310.293V345.318Z" stroke="white" stroke-width="6" mask="url(#path-1-outside-1_3_616)"/>
</svg>
