<svg width="406" height="406" viewBox="0 0 406 406" fill="none" xmlns="http://www.w3.org/2000/svg">
<mask id="path-1-outside-1_3_707" maskUnits="userSpaceOnUse" x="0" y="0" width="406" height="406" fill="black">
<rect fill="white" width="406" height="406"/>
<path d="M396.221 386.289H310.891V334.984C329.524 331.806 346.039 317.05 355.642 294.68C368.401 290.982 379.991 281.616 388.566 267.986C397.873 253.189 403 234.279 403 214.738C403 185.011 390.995 157.497 372.107 143.206C370.139 93.6334 340.001 54.1067 303.296 54.1067C291.742 54.1067 280.31 58.0939 270.236 65.6373C267.102 67.984 266.061 73.1073 267.912 77.0806C269.764 81.0559 273.805 82.3744 276.938 80.0276C284.983 74.0028 294.097 70.8191 303.296 70.8191C333.97 70.8191 358.971 105.542 359.029 148.223C359.034 151.368 360.43 154.244 362.643 155.664C379.152 166.259 389.819 189.446 389.819 214.737C389.819 246.656 372.771 274.291 350.163 279.019C348.046 279.463 346.232 281.184 345.3 283.635C338.23 302.227 325.455 314.795 310.891 318.066V244.124L343.325 206.306C346.004 203.181 346.179 197.895 343.715 194.499C341.25 191.102 337.082 190.879 334.403 194.004L310.891 221.419V165.637C310.891 161.022 307.94 157.28 304.3 157.28C300.66 157.28 297.71 161.022 297.71 165.637V266.776L274.197 239.362C271.518 236.236 267.349 236.459 264.885 239.856C262.421 243.253 262.596 248.539 265.275 251.663L297.71 289.481V318.458C282.17 315.919 268.464 302.881 261.11 283.152C260.232 280.793 258.534 279.091 256.522 278.55C234.653 272.659 218.782 245.822 218.782 214.737C218.782 190.225 228.53 168.041 244.222 156.844C246.322 155.346 247.61 152.513 247.58 149.459C247.578 149.228 247.572 148.998 247.566 148.769C247.562 148.636 247.558 148.504 247.558 148.373C247.558 130.965 251.61 114.517 259.275 100.809C261.38 97.0441 260.679 91.8276 257.71 89.1599C254.741 86.4893 250.627 87.3798 248.523 91.1431C239.791 106.759 234.944 125.258 234.425 144.845C216.552 159.624 205.602 185.947 205.602 214.738C205.602 252.186 224.352 284.806 250.632 293.928C260.523 317.548 278.018 332.834 297.712 335.281V386.289H293.538C292.567 364.419 280.777 345.394 264.359 338.97C259.207 325.073 249.201 314.997 237.435 311.73C233.577 289.496 217.792 272.916 199.397 272.916C185.213 272.916 172.351 282.582 165.495 297.968C151.993 298.619 139.853 307.765 132.879 321.935C128.533 306.775 117.401 295.736 104.366 294.55V272.579C122.158 269.443 137.911 255.333 147.116 233.988C159.343 230.406 170.448 221.411 178.669 208.343C187.621 194.115 192.55 175.931 192.55 157.141C192.55 128.624 181.059 102.222 162.966 88.4497C161.003 40.8902 132.057 3 96.8115 3C83.292 3 70.2882 8.5285 59.2046 18.9902C56.2858 21.745 55.6804 26.9813 57.853 30.6831C60.0257 34.384 64.1546 35.1517 67.0749 32.3969C75.8655 24.0977 86.1483 19.7123 96.8115 19.7123C126.023 19.7123 149.834 52.7962 149.89 93.4621C149.894 96.6072 151.29 99.4829 153.504 100.903C169.216 110.987 179.368 133.062 179.368 157.141C179.368 187.528 163.147 213.835 141.637 218.333C139.521 218.777 137.706 220.498 136.774 222.95C130.098 240.503 118.083 252.418 104.365 255.647V185.434L135.327 149.334C138.006 146.209 138.18 140.923 135.717 137.527C133.254 134.129 129.084 133.907 126.405 137.032L104.365 162.73V110.136C104.365 105.521 101.414 101.779 97.774 101.779C94.1342 101.779 91.1834 105.521 91.1834 110.136V206.155L69.1436 180.457C66.4639 177.332 62.2952 177.555 59.8319 180.951C57.3679 184.348 57.5429 189.635 60.2218 192.758L91.1826 228.859V256.038C76.5295 253.497 63.6264 241.133 56.6772 222.492C55.7983 220.133 54.1007 218.431 52.089 217.89C31.282 212.282 16.1797 186.735 16.1797 157.141C16.1797 133.802 25.457 112.683 40.3921 102.026C42.4906 100.528 43.778 97.7008 43.7499 94.6478C43.7484 94.422 43.7429 94.1961 43.7366 93.9712C43.7343 93.8494 43.7296 93.7285 43.7296 93.6047C43.7296 83.2689 45.2319 73.2738 48.1944 63.8978C49.0757 61.1122 50.0905 58.3762 51.2132 55.763C52.9538 51.7095 51.7741 46.6357 48.5773 44.4286C45.3804 42.2196 41.3781 43.7164 39.6382 47.7699C38.2702 50.9557 37.0327 54.29 35.9609 57.6818C32.714 67.9553 30.9148 78.8201 30.5999 90.0297C13.482 104.262 3 129.522 3 157.141C3 193.097 20.9828 224.429 46.1999 233.259C55.6827 255.8 72.3772 270.425 91.1834 272.873V296.775C83.9709 299.97 77.7983 306.288 73.8272 314.775C57.8225 315.929 44.8905 330.916 42.3843 350.683C30.5804 357.33 21.8047 370.512 18.5734 386.287H9.59061C5.95078 386.287 3 390.028 3 394.643C3 399.259 5.95078 403 9.59061 403H24.0281H172.804H286.746H396.221C399.861 403 402.812 399.259 402.812 394.643C402.812 390.028 399.86 386.289 396.221 386.289ZM32.396 386.289C35.5398 376.13 42.153 368.038 50.578 364.578C53.2288 363.489 55.053 360.405 55.1351 356.875C55.4671 342.6 64.5522 331.417 75.8186 331.417C76.2702 331.417 76.7639 331.443 77.3709 331.5C80.1944 331.758 82.8358 329.714 83.9319 326.403C87.0037 317.137 94.1092 311.149 102.034 311.149C112.211 311.149 120.801 321.216 121.592 334.067C121.845 338.169 124.415 341.428 127.651 341.749C129.447 341.926 131.185 342.426 132.83 343.189C132.837 343.192 132.844 343.197 132.851 343.2C133.156 343.342 133.457 343.496 133.755 343.656C133.819 343.691 133.884 343.726 133.948 343.761C134.227 343.915 134.503 344.077 134.774 344.246C134.866 344.304 134.957 344.365 135.048 344.424C135.424 344.668 135.792 344.927 136.153 345.2C136.35 345.349 136.548 345.494 136.74 345.653C136.886 345.771 137.027 345.899 137.169 346.021C137.386 346.208 137.601 346.398 137.811 346.597C137.931 346.709 138.049 346.822 138.165 346.938C138.42 347.19 138.672 347.449 138.916 347.718C138.984 347.791 139.052 347.862 139.119 347.936C139.768 348.665 140.38 349.45 140.95 350.285C141.002 350.362 141.054 350.439 141.105 350.517C141.345 350.877 141.576 351.246 141.801 351.624C141.843 351.696 141.888 351.767 141.93 351.841C142.442 352.724 142.908 353.656 143.327 354.627C143.383 354.756 143.435 354.888 143.49 355.019C143.638 355.378 143.779 355.745 143.915 356.116C143.968 356.263 144.022 356.409 144.074 356.557C144.24 357.038 144.398 357.527 144.541 358.023C144.547 358.041 144.551 358.057 144.557 358.075C145.329 360.781 147.147 362.793 149.365 363.399C149.954 363.56 150.532 363.756 151.1 363.977C151.285 364.049 151.465 364.137 151.648 364.215C152.026 364.376 152.403 364.539 152.771 364.725C152.983 364.833 153.19 364.955 153.399 365.071C153.728 365.253 154.055 365.439 154.375 365.641C154.591 365.776 154.8 365.923 155.011 366.068C155.315 366.275 155.615 366.489 155.908 366.714C156.116 366.873 156.322 367.038 156.525 367.207C156.81 367.442 157.09 367.686 157.365 367.938C157.561 368.117 157.755 368.297 157.946 368.484C158.218 368.751 158.483 369.03 158.744 369.312C158.922 369.503 159.101 369.693 159.274 369.891C159.542 370.2 159.798 370.522 160.054 370.846C160.204 371.038 160.361 371.225 160.507 371.423C160.794 371.81 161.066 372.214 161.336 372.62C161.436 372.772 161.542 372.915 161.64 373.068C161.999 373.637 162.342 374.221 162.665 374.825C162.733 374.95 162.792 375.085 162.857 375.212C163.107 375.693 163.35 376.18 163.575 376.68C163.677 376.907 163.768 377.143 163.865 377.373C164.04 377.787 164.212 378.202 164.371 378.627C164.469 378.892 164.557 379.162 164.648 379.43C164.787 379.837 164.922 380.244 165.045 380.66C165.129 380.945 165.207 381.234 165.284 381.523C165.394 381.935 165.497 382.35 165.593 382.77C165.66 383.067 165.722 383.366 165.783 383.667C165.866 384.093 165.94 384.521 166.007 384.953C166.055 385.255 166.101 385.556 166.141 385.861C166.16 386.002 166.169 386.146 166.186 386.289H32.396ZM179.475 386.29V386.289C179.469 386.209 179.456 386.131 179.451 386.053C179.375 385.055 179.278 384.064 179.149 383.084C179.141 383.027 179.131 382.969 179.123 382.912C178.989 381.912 178.829 380.923 178.641 379.944C178.633 379.901 178.627 379.859 178.618 379.818C178.43 378.848 178.212 377.892 177.975 376.947C177.949 376.846 177.925 376.742 177.899 376.641C177.665 375.732 177.404 374.836 177.123 373.951C177.082 373.823 177.043 373.694 177.002 373.568C176.721 372.701 176.417 371.849 176.093 371.01C176.043 370.877 175.992 370.745 175.94 370.614C175.61 369.779 175.261 368.959 174.893 368.155C174.836 368.033 174.78 367.913 174.723 367.791C174.343 366.98 173.946 366.184 173.526 365.406C173.475 365.311 173.422 365.219 173.371 365.126C172.933 364.327 172.479 363.544 172.003 362.784C171.973 362.736 171.941 362.691 171.911 362.642C171.413 361.854 170.896 361.085 170.356 360.341C170.35 360.333 170.344 360.324 170.339 360.316C169.804 359.581 169.247 358.871 168.675 358.182C168.625 358.121 168.576 358.059 168.526 357.999C167.975 357.345 167.405 356.715 166.821 356.104C166.743 356.023 166.665 355.94 166.586 355.858C166.011 355.268 165.421 354.703 164.815 354.159C164.722 354.075 164.628 353.99 164.534 353.907C163.929 353.374 163.31 352.865 162.677 352.381C162.578 352.305 162.478 352.23 162.379 352.156C161.737 351.675 161.084 351.219 160.418 350.79C160.326 350.73 160.233 350.676 160.141 350.618C159.454 350.187 158.755 349.778 158.042 349.404C157.979 349.37 157.915 349.341 157.851 349.309C157.104 348.923 156.345 348.564 155.572 348.244C155.569 348.243 155.566 348.241 155.563 348.239C155.529 348.153 155.491 348.073 155.458 347.987C155.191 347.311 154.912 346.646 154.618 345.992C154.468 345.658 154.308 345.333 154.152 345.004C153.962 344.608 153.771 344.214 153.572 343.827C153.38 343.453 153.183 343.087 152.982 342.722C152.807 342.406 152.627 342.095 152.446 341.785C152.218 341.394 151.989 341.005 151.75 340.624C151.609 340.401 151.461 340.187 151.318 339.969C150.762 339.123 150.182 338.305 149.575 337.517C149.47 337.381 149.37 337.24 149.265 337.107C148.963 336.726 148.651 336.362 148.339 335.996C148.158 335.785 147.979 335.575 147.794 335.369C147.496 335.036 147.193 334.709 146.883 334.388C146.658 334.155 146.429 333.93 146.2 333.703C145.913 333.423 145.629 333.139 145.334 332.87C144.92 332.49 144.497 332.127 144.068 331.771C143.954 331.676 143.846 331.571 143.73 331.478C148.533 321.19 157.325 314.649 167.04 314.649C167.634 314.649 168.279 314.684 169.07 314.757C171.89 315.023 174.534 312.97 175.63 309.66C179.662 297.494 188.992 289.632 199.397 289.632C212.759 289.632 224.038 302.851 225.075 319.725C225.328 323.827 227.898 327.086 231.134 327.406C241.186 328.399 249.9 336.814 253.335 348.845C254.107 351.552 255.925 353.563 258.143 354.17C270.303 357.492 279.323 370.75 280.336 386.293H179.475V386.29Z"/>
</mask>
<path d="M396.221 386.289H310.891V334.984C329.524 331.806 346.039 317.05 355.642 294.68C368.401 290.982 379.991 281.616 388.566 267.986C397.873 253.189 403 234.279 403 214.738C403 185.011 390.995 157.497 372.107 143.206C370.139 93.6334 340.001 54.1067 303.296 54.1067C291.742 54.1067 280.31 58.0939 270.236 65.6373C267.102 67.984 266.061 73.1073 267.912 77.0806C269.764 81.0559 273.805 82.3744 276.938 80.0276C284.983 74.0028 294.097 70.8191 303.296 70.8191C333.97 70.8191 358.971 105.542 359.029 148.223C359.034 151.368 360.43 154.244 362.643 155.664C379.152 166.259 389.819 189.446 389.819 214.737C389.819 246.656 372.771 274.291 350.163 279.019C348.046 279.463 346.232 281.184 345.3 283.635C338.23 302.227 325.455 314.795 310.891 318.066V244.124L343.325 206.306C346.004 203.181 346.179 197.895 343.715 194.499C341.25 191.102 337.082 190.879 334.403 194.004L310.891 221.419V165.637C310.891 161.022 307.94 157.28 304.3 157.28C300.66 157.28 297.71 161.022 297.71 165.637V266.776L274.197 239.362C271.518 236.236 267.349 236.459 264.885 239.856C262.421 243.253 262.596 248.539 265.275 251.663L297.71 289.481V318.458C282.17 315.919 268.464 302.881 261.11 283.152C260.232 280.793 258.534 279.091 256.522 278.55C234.653 272.659 218.782 245.822 218.782 214.737C218.782 190.225 228.53 168.041 244.222 156.844C246.322 155.346 247.61 152.513 247.58 149.459C247.578 149.228 247.572 148.998 247.566 148.769C247.562 148.636 247.558 148.504 247.558 148.373C247.558 130.965 251.61 114.517 259.275 100.809C261.38 97.0441 260.679 91.8276 257.71 89.1599C254.741 86.4893 250.627 87.3798 248.523 91.1431C239.791 106.759 234.944 125.258 234.425 144.845C216.552 159.624 205.602 185.947 205.602 214.738C205.602 252.186 224.352 284.806 250.632 293.928C260.523 317.548 278.018 332.834 297.712 335.281V386.289H293.538C292.567 364.419 280.777 345.394 264.359 338.97C259.207 325.073 249.201 314.997 237.435 311.73C233.577 289.496 217.792 272.916 199.397 272.916C185.213 272.916 172.351 282.582 165.495 297.968C151.993 298.619 139.853 307.765 132.879 321.935C128.533 306.775 117.401 295.736 104.366 294.55V272.579C122.158 269.443 137.911 255.333 147.116 233.988C159.343 230.406 170.448 221.411 178.669 208.343C187.621 194.115 192.55 175.931 192.55 157.141C192.55 128.624 181.059 102.222 162.966 88.4497C161.003 40.8902 132.057 3 96.8115 3C83.292 3 70.2882 8.5285 59.2046 18.9902C56.2858 21.745 55.6804 26.9813 57.853 30.6831C60.0257 34.384 64.1546 35.1517 67.0749 32.3969C75.8655 24.0977 86.1483 19.7123 96.8115 19.7123C126.023 19.7123 149.834 52.7962 149.89 93.4621C149.894 96.6072 151.29 99.4829 153.504 100.903C169.216 110.987 179.368 133.062 179.368 157.141C179.368 187.528 163.147 213.835 141.637 218.333C139.521 218.777 137.706 220.498 136.774 222.95C130.098 240.503 118.083 252.418 104.365 255.647V185.434L135.327 149.334C138.006 146.209 138.18 140.923 135.717 137.527C133.254 134.129 129.084 133.907 126.405 137.032L104.365 162.73V110.136C104.365 105.521 101.414 101.779 97.774 101.779C94.1342 101.779 91.1834 105.521 91.1834 110.136V206.155L69.1436 180.457C66.4639 177.332 62.2952 177.555 59.8319 180.951C57.3679 184.348 57.5429 189.635 60.2218 192.758L91.1826 228.859V256.038C76.5295 253.497 63.6264 241.133 56.6772 222.492C55.7983 220.133 54.1007 218.431 52.089 217.89C31.282 212.282 16.1797 186.735 16.1797 157.141C16.1797 133.802 25.457 112.683 40.3921 102.026C42.4906 100.528 43.778 97.7008 43.7499 94.6478C43.7484 94.422 43.7429 94.1961 43.7366 93.9712C43.7343 93.8494 43.7296 93.7285 43.7296 93.6047C43.7296 83.2689 45.2319 73.2738 48.1944 63.8978C49.0757 61.1122 50.0905 58.3762 51.2132 55.763C52.9538 51.7095 51.7741 46.6357 48.5773 44.4286C45.3804 42.2196 41.3781 43.7164 39.6382 47.7699C38.2702 50.9557 37.0327 54.29 35.9609 57.6818C32.714 67.9553 30.9148 78.8201 30.5999 90.0297C13.482 104.262 3 129.522 3 157.141C3 193.097 20.9828 224.429 46.1999 233.259C55.6827 255.8 72.3772 270.425 91.1834 272.873V296.775C83.9709 299.97 77.7983 306.288 73.8272 314.775C57.8225 315.929 44.8905 330.916 42.3843 350.683C30.5804 357.33 21.8047 370.512 18.5734 386.287H9.59061C5.95078 386.287 3 390.028 3 394.643C3 399.259 5.95078 403 9.59061 403H24.0281H172.804H286.746H396.221C399.861 403 402.812 399.259 402.812 394.643C402.812 390.028 399.86 386.289 396.221 386.289ZM32.396 386.289C35.5398 376.13 42.153 368.038 50.578 364.578C53.2288 363.489 55.053 360.405 55.1351 356.875C55.4671 342.6 64.5522 331.417 75.8186 331.417C76.2702 331.417 76.7639 331.443 77.3709 331.5C80.1944 331.758 82.8358 329.714 83.9319 326.403C87.0037 317.137 94.1092 311.149 102.034 311.149C112.211 311.149 120.801 321.216 121.592 334.067C121.845 338.169 124.415 341.428 127.651 341.749C129.447 341.926 131.185 342.426 132.83 343.189C132.837 343.192 132.844 343.197 132.851 343.2C133.156 343.342 133.457 343.496 133.755 343.656C133.819 343.691 133.884 343.726 133.948 343.761C134.227 343.915 134.503 344.077 134.774 344.246C134.866 344.304 134.957 344.365 135.048 344.424C135.424 344.668 135.792 344.927 136.153 345.2C136.35 345.349 136.548 345.494 136.74 345.653C136.886 345.771 137.027 345.899 137.169 346.021C137.386 346.208 137.601 346.398 137.811 346.597C137.931 346.709 138.049 346.822 138.165 346.938C138.42 347.19 138.672 347.449 138.916 347.718C138.984 347.791 139.052 347.862 139.119 347.936C139.768 348.665 140.38 349.45 140.95 350.285C141.002 350.362 141.054 350.439 141.105 350.517C141.345 350.877 141.576 351.246 141.801 351.624C141.843 351.696 141.888 351.767 141.93 351.841C142.442 352.724 142.908 353.656 143.327 354.627C143.383 354.756 143.435 354.888 143.49 355.019C143.638 355.378 143.779 355.745 143.915 356.116C143.968 356.263 144.022 356.409 144.074 356.557C144.24 357.038 144.398 357.527 144.541 358.023C144.547 358.041 144.551 358.057 144.557 358.075C145.329 360.781 147.147 362.793 149.365 363.399C149.954 363.56 150.532 363.756 151.1 363.977C151.285 364.049 151.465 364.137 151.648 364.215C152.026 364.376 152.403 364.539 152.771 364.725C152.983 364.833 153.19 364.955 153.399 365.071C153.728 365.253 154.055 365.439 154.375 365.641C154.591 365.776 154.8 365.923 155.011 366.068C155.315 366.275 155.615 366.489 155.908 366.714C156.116 366.873 156.322 367.038 156.525 367.207C156.81 367.442 157.09 367.686 157.365 367.938C157.561 368.117 157.755 368.297 157.946 368.484C158.218 368.751 158.483 369.03 158.744 369.312C158.922 369.503 159.101 369.693 159.274 369.891C159.542 370.2 159.798 370.522 160.054 370.846C160.204 371.038 160.361 371.225 160.507 371.423C160.794 371.81 161.066 372.214 161.336 372.62C161.436 372.772 161.542 372.915 161.64 373.068C161.999 373.637 162.342 374.221 162.665 374.825C162.733 374.95 162.792 375.085 162.857 375.212C163.107 375.693 163.35 376.18 163.575 376.68C163.677 376.907 163.768 377.143 163.865 377.373C164.04 377.787 164.212 378.202 164.371 378.627C164.469 378.892 164.557 379.162 164.648 379.43C164.787 379.837 164.922 380.244 165.045 380.66C165.129 380.945 165.207 381.234 165.284 381.523C165.394 381.935 165.497 382.35 165.593 382.77C165.66 383.067 165.722 383.366 165.783 383.667C165.866 384.093 165.94 384.521 166.007 384.953C166.055 385.255 166.101 385.556 166.141 385.861C166.16 386.002 166.169 386.146 166.186 386.289H32.396ZM179.475 386.29V386.289C179.469 386.209 179.456 386.131 179.451 386.053C179.375 385.055 179.278 384.064 179.149 383.084C179.141 383.027 179.131 382.969 179.123 382.912C178.989 381.912 178.829 380.923 178.641 379.944C178.633 379.901 178.627 379.859 178.618 379.818C178.43 378.848 178.212 377.892 177.975 376.947C177.949 376.846 177.925 376.742 177.899 376.641C177.665 375.732 177.404 374.836 177.123 373.951C177.082 373.823 177.043 373.694 177.002 373.568C176.721 372.701 176.417 371.849 176.093 371.01C176.043 370.877 175.992 370.745 175.94 370.614C175.61 369.779 175.261 368.959 174.893 368.155C174.836 368.033 174.78 367.913 174.723 367.791C174.343 366.98 173.946 366.184 173.526 365.406C173.475 365.311 173.422 365.219 173.371 365.126C172.933 364.327 172.479 363.544 172.003 362.784C171.973 362.736 171.941 362.691 171.911 362.642C171.413 361.854 170.896 361.085 170.356 360.341C170.35 360.333 170.344 360.324 170.339 360.316C169.804 359.581 169.247 358.871 168.675 358.182C168.625 358.121 168.576 358.059 168.526 357.999C167.975 357.345 167.405 356.715 166.821 356.104C166.743 356.023 166.665 355.94 166.586 355.858C166.011 355.268 165.421 354.703 164.815 354.159C164.722 354.075 164.628 353.99 164.534 353.907C163.929 353.374 163.31 352.865 162.677 352.381C162.578 352.305 162.478 352.23 162.379 352.156C161.737 351.675 161.084 351.219 160.418 350.79C160.326 350.73 160.233 350.676 160.141 350.618C159.454 350.187 158.755 349.778 158.042 349.404C157.979 349.37 157.915 349.341 157.851 349.309C157.104 348.923 156.345 348.564 155.572 348.244C155.569 348.243 155.566 348.241 155.563 348.239C155.529 348.153 155.491 348.073 155.458 347.987C155.191 347.311 154.912 346.646 154.618 345.992C154.468 345.658 154.308 345.333 154.152 345.004C153.962 344.608 153.771 344.214 153.572 343.827C153.38 343.453 153.183 343.087 152.982 342.722C152.807 342.406 152.627 342.095 152.446 341.785C152.218 341.394 151.989 341.005 151.75 340.624C151.609 340.401 151.461 340.187 151.318 339.969C150.762 339.123 150.182 338.305 149.575 337.517C149.47 337.381 149.37 337.24 149.265 337.107C148.963 336.726 148.651 336.362 148.339 335.996C148.158 335.785 147.979 335.575 147.794 335.369C147.496 335.036 147.193 334.709 146.883 334.388C146.658 334.155 146.429 333.93 146.2 333.703C145.913 333.423 145.629 333.139 145.334 332.87C144.92 332.49 144.497 332.127 144.068 331.771C143.954 331.676 143.846 331.571 143.73 331.478C148.533 321.19 157.325 314.649 167.04 314.649C167.634 314.649 168.279 314.684 169.07 314.757C171.89 315.023 174.534 312.97 175.63 309.66C179.662 297.494 188.992 289.632 199.397 289.632C212.759 289.632 224.038 302.851 225.075 319.725C225.328 323.827 227.898 327.086 231.134 327.406C241.186 328.399 249.9 336.814 253.335 348.845C254.107 351.552 255.925 353.563 258.143 354.17C270.303 357.492 279.323 370.75 280.336 386.293H179.475V386.29Z" stroke="white" stroke-width="6" mask="url(#path-1-outside-1_3_707)"/>
</svg>
