<svg width="406" height="406" viewBox="0 0 406 406" fill="none" xmlns="http://www.w3.org/2000/svg">
<mask id="path-1-outside-1_3_792" maskUnits="userSpaceOnUse" x="0" y="-1" width="406" height="407" fill="black">
<rect fill="white" y="-1" width="406" height="407"/>
<path d="M9.40457 344.127L52.1081 349.545L145.41 361.494V395.033C145.412 396.145 145.624 397.244 146.032 398.259C146.44 399.275 147.035 400.184 147.778 400.929C149.095 402.257 150.808 402.995 152.587 403H153.376L196.439 397.822L325.626 381.889C326.569 381.774 327.481 381.454 328.312 380.947C329.144 380.44 329.877 379.757 330.47 378.936C331.063 378.115 331.504 377.172 331.769 376.161C332.034 375.151 332.117 374.092 332.014 373.046C331.91 372 331.622 370.986 331.165 370.064C330.709 369.141 330.093 368.328 329.353 367.669C328.613 367.011 327.764 366.521 326.854 366.227C325.943 365.933 324.99 365.841 324.047 365.956L201.319 380.694L161.343 177.627L189.046 174.281L190.625 190.214C190.821 192.171 191.662 193.979 192.987 195.289C194.313 196.598 196.028 197.316 197.803 197.304H198.592C199.53 197.195 200.439 196.881 201.268 196.381C202.097 195.882 202.829 195.206 203.422 194.392C204.015 193.578 204.458 192.642 204.725 191.638C204.993 190.634 205.079 189.582 204.98 188.541L203.401 172.608L252.061 166.712L303.305 160.578L304.884 176.511C305.094 178.624 306.051 180.558 307.545 181.888C309.039 183.217 310.947 183.834 312.851 183.601C314.754 183.369 316.497 182.307 317.695 180.648C318.892 178.99 319.448 176.871 319.238 174.759L317.731 158.826L346.727 155.161L386.775 358.786L345.578 363.725C344.636 363.84 343.723 364.16 342.892 364.667C342.061 365.173 341.328 365.857 340.735 366.678C340.141 367.499 339.7 368.442 339.435 369.452C339.17 370.463 339.087 371.522 339.191 372.568C339.294 373.614 339.583 374.627 340.039 375.55C340.496 376.472 341.111 377.286 341.851 377.944C342.591 378.603 343.44 379.093 344.351 379.387C345.261 379.681 346.215 379.773 347.157 379.658L396.607 373.763C397.604 373.638 398.566 373.283 399.431 372.721C400.296 372.158 401.046 371.4 401.631 370.497C402.218 369.599 402.629 368.576 402.839 367.493C403.049 366.409 403.054 365.289 402.851 364.203L359.789 144.964C359.409 143.037 358.399 141.335 356.954 140.187C355.509 139.039 353.731 138.527 351.966 138.75L316.081 143.052L311.487 95.2525C310.393 83.5443 306.718 72.3154 300.787 62.557C294.857 52.7986 286.853 44.8111 277.483 39.2996C268.113 33.7881 257.664 30.9221 247.06 30.9548C236.455 30.9874 226.021 33.9176 216.678 39.4868C211.647 29.5951 204.549 21.19 195.981 14.9789C187.413 8.76793 177.626 4.93287 167.444 3.79665C164.902 3.34522 162.337 3.0791 159.764 3C143.906 3.04748 128.617 9.56897 116.811 21.322C105.005 33.0751 97.5067 49.2383 95.7447 66.7323L90.8642 114.532L54.9789 110.07C53.2233 109.844 51.4543 110.345 50.0107 111.477C48.5672 112.609 47.5507 114.292 47.1559 116.205L3.16052 334.488C2.94777 335.586 2.94649 336.721 3.15676 337.819C3.36703 338.918 3.7841 339.954 4.38063 340.861C4.96599 341.765 5.71549 342.522 6.58081 343.085C7.44613 343.648 8.40806 344.003 9.40457 344.127ZM186.965 382.924L159.764 386.191V245.103L186.965 382.924ZM202.109 156.754L200.817 143.928L203.616 144.326L202.109 156.754ZM245.171 151.576L216.678 155.161L217.611 146.318L245.315 149.823L245.171 151.576ZM210.004 66.2543C210.579 71.1196 210.579 76.0475 210.004 80.9128L208.999 90.4726C208.77 92.5855 209.307 94.7125 210.492 96.3858C211.676 98.0591 213.411 99.1416 215.315 99.3951C217.218 99.6487 219.134 99.0525 220.642 97.7378C222.149 96.4231 223.124 94.4975 223.353 92.3846L224.358 82.7451C225.34 73.411 224.607 63.9529 222.205 54.9418C228.269 51.0692 234.988 48.6283 241.941 47.772C248.501 46.987 255.136 47.644 261.467 49.7055C267.799 51.7669 273.702 55.1924 278.84 59.7864C283.979 64.3804 288.251 70.0528 291.415 76.4799C294.578 82.9069 296.57 89.9626 297.277 97.2442L301.942 145.043L260.243 149.744L261.32 144.486C261.532 143.388 261.534 142.253 261.323 141.154C261.113 140.056 260.696 139.019 260.099 138.113C259.514 137.209 258.765 136.451 257.899 135.889C257.034 135.326 256.072 134.971 255.075 134.846L219.19 130.305L220.626 116.284C220.739 115.238 220.665 114.177 220.409 113.163C220.153 112.148 219.719 111.2 219.132 110.371C218.546 109.542 217.818 108.85 216.991 108.334C216.163 107.818 215.252 107.487 214.31 107.362C213.367 107.236 212.412 107.318 211.498 107.602C210.584 107.887 209.729 108.368 208.983 109.019C208.236 109.67 207.613 110.478 207.147 111.396C206.682 112.315 206.385 113.326 206.271 114.372L204.764 128.473L198.736 127.756L196.941 109.194C196.289 101.42 197.115 93.5816 199.365 86.1848C201.615 78.788 205.24 71.998 210.004 66.2543ZM110.386 68.246C111.8 54.7641 117.596 42.3176 126.686 33.2395C135.776 24.1613 147.537 19.0747 159.764 18.9331C161.724 18.8178 163.689 18.8178 165.649 18.9331C173.872 19.9527 181.736 23.2332 188.528 28.4776C195.321 33.7219 200.827 40.7643 204.549 48.9669C196.765 56.5717 190.744 66.1449 186.996 76.8775C183.249 87.6101 181.884 99.1864 183.018 110.628L184.525 125.525L105.577 115.488L110.386 68.246ZM46.7971 191.568V250.68C46.7971 252.793 47.5532 254.819 48.8992 256.313C50.2452 257.807 52.0707 258.646 53.9741 258.646C55.8776 258.646 57.7031 257.807 59.0491 256.313C60.3951 254.819 61.1512 252.793 61.1512 250.68L61.9407 126.163L65.5292 126.641L89.6441 129.668L88.0652 145.601C87.8634 147.691 88.414 149.785 89.5971 151.427C90.7801 153.068 92.4996 154.124 94.381 154.364H95.1705C96.9448 154.376 98.6601 153.658 99.9855 152.349C101.311 151.04 102.152 149.232 102.348 147.274L103.998 131.341L186.391 141.777L187.97 158.188L152.085 162.49C151.088 162.615 150.126 162.97 149.261 163.532C148.396 164.095 147.646 164.853 147.061 165.756C146.061 167.361 145.627 169.317 145.841 171.253V345.163L60.4335 334.249V274.42C60.4335 272.307 59.6773 270.281 58.3314 268.787C56.9854 267.293 55.1599 266.453 53.2564 266.453C51.353 266.453 49.5274 267.293 48.1815 268.787C46.8355 270.281 46.0794 272.307 46.0794 274.42V332.576L19.1654 329.15L46.7971 191.568Z"/>
</mask>
<path d="M9.40457 344.127L52.1081 349.545L145.41 361.494V395.033C145.412 396.145 145.624 397.244 146.032 398.259C146.44 399.275 147.035 400.184 147.778 400.929C149.095 402.257 150.808 402.995 152.587 403H153.376L196.439 397.822L325.626 381.889C326.569 381.774 327.481 381.454 328.312 380.947C329.144 380.44 329.877 379.757 330.47 378.936C331.063 378.115 331.504 377.172 331.769 376.161C332.034 375.151 332.117 374.092 332.014 373.046C331.91 372 331.622 370.986 331.165 370.064C330.709 369.141 330.093 368.328 329.353 367.669C328.613 367.011 327.764 366.521 326.854 366.227C325.943 365.933 324.99 365.841 324.047 365.956L201.319 380.694L161.343 177.627L189.046 174.281L190.625 190.214C190.821 192.171 191.662 193.979 192.987 195.289C194.313 196.598 196.028 197.316 197.803 197.304H198.592C199.53 197.195 200.439 196.881 201.268 196.381C202.097 195.882 202.829 195.206 203.422 194.392C204.015 193.578 204.458 192.642 204.725 191.638C204.993 190.634 205.079 189.582 204.98 188.541L203.401 172.608L252.061 166.712L303.305 160.578L304.884 176.511C305.094 178.624 306.051 180.558 307.545 181.888C309.039 183.217 310.947 183.834 312.851 183.601C314.754 183.369 316.497 182.307 317.695 180.648C318.892 178.99 319.448 176.871 319.238 174.759L317.731 158.826L346.727 155.161L386.775 358.786L345.578 363.725C344.636 363.84 343.723 364.16 342.892 364.667C342.061 365.173 341.328 365.857 340.735 366.678C340.141 367.499 339.7 368.442 339.435 369.452C339.17 370.463 339.087 371.522 339.191 372.568C339.294 373.614 339.583 374.627 340.039 375.55C340.496 376.472 341.111 377.286 341.851 377.944C342.591 378.603 343.44 379.093 344.351 379.387C345.261 379.681 346.215 379.773 347.157 379.658L396.607 373.763C397.604 373.638 398.566 373.283 399.431 372.721C400.296 372.158 401.046 371.4 401.631 370.497C402.218 369.599 402.629 368.576 402.839 367.493C403.049 366.409 403.054 365.289 402.851 364.203L359.789 144.964C359.409 143.037 358.399 141.335 356.954 140.187C355.509 139.039 353.731 138.527 351.966 138.75L316.081 143.052L311.487 95.2525C310.393 83.5443 306.718 72.3154 300.787 62.557C294.857 52.7986 286.853 44.8111 277.483 39.2996C268.113 33.7881 257.664 30.9221 247.06 30.9548C236.455 30.9874 226.021 33.9176 216.678 39.4868C211.647 29.5951 204.549 21.19 195.981 14.9789C187.413 8.76793 177.626 4.93287 167.444 3.79665C164.902 3.34522 162.337 3.0791 159.764 3C143.906 3.04748 128.617 9.56897 116.811 21.322C105.005 33.0751 97.5067 49.2383 95.7447 66.7323L90.8642 114.532L54.9789 110.07C53.2233 109.844 51.4543 110.345 50.0107 111.477C48.5672 112.609 47.5507 114.292 47.1559 116.205L3.16052 334.488C2.94777 335.586 2.94649 336.721 3.15676 337.819C3.36703 338.918 3.7841 339.954 4.38063 340.861C4.96599 341.765 5.71549 342.522 6.58081 343.085C7.44613 343.648 8.40806 344.003 9.40457 344.127ZM186.965 382.924L159.764 386.191V245.103L186.965 382.924ZM202.109 156.754L200.817 143.928L203.616 144.326L202.109 156.754ZM245.171 151.576L216.678 155.161L217.611 146.318L245.315 149.823L245.171 151.576ZM210.004 66.2543C210.579 71.1196 210.579 76.0475 210.004 80.9128L208.999 90.4726C208.77 92.5855 209.307 94.7125 210.492 96.3858C211.676 98.0591 213.411 99.1416 215.315 99.3951C217.218 99.6487 219.134 99.0525 220.642 97.7378C222.149 96.4231 223.124 94.4975 223.353 92.3846L224.358 82.7451C225.34 73.411 224.607 63.9529 222.205 54.9418C228.269 51.0692 234.988 48.6283 241.941 47.772C248.501 46.987 255.136 47.644 261.467 49.7055C267.799 51.7669 273.702 55.1924 278.84 59.7864C283.979 64.3804 288.251 70.0528 291.415 76.4799C294.578 82.9069 296.57 89.9626 297.277 97.2442L301.942 145.043L260.243 149.744L261.32 144.486C261.532 143.388 261.534 142.253 261.323 141.154C261.113 140.056 260.696 139.019 260.099 138.113C259.514 137.209 258.765 136.451 257.899 135.889C257.034 135.326 256.072 134.971 255.075 134.846L219.19 130.305L220.626 116.284C220.739 115.238 220.665 114.177 220.409 113.163C220.153 112.148 219.719 111.2 219.132 110.371C218.546 109.542 217.818 108.85 216.991 108.334C216.163 107.818 215.252 107.487 214.31 107.362C213.367 107.236 212.412 107.318 211.498 107.602C210.584 107.887 209.729 108.368 208.983 109.019C208.236 109.67 207.613 110.478 207.147 111.396C206.682 112.315 206.385 113.326 206.271 114.372L204.764 128.473L198.736 127.756L196.941 109.194C196.289 101.42 197.115 93.5816 199.365 86.1848C201.615 78.788 205.24 71.998 210.004 66.2543ZM110.386 68.246C111.8 54.7641 117.596 42.3176 126.686 33.2395C135.776 24.1613 147.537 19.0747 159.764 18.9331C161.724 18.8178 163.689 18.8178 165.649 18.9331C173.872 19.9527 181.736 23.2332 188.528 28.4776C195.321 33.7219 200.827 40.7643 204.549 48.9669C196.765 56.5717 190.744 66.1449 186.996 76.8775C183.249 87.6101 181.884 99.1864 183.018 110.628L184.525 125.525L105.577 115.488L110.386 68.246ZM46.7971 191.568V250.68C46.7971 252.793 47.5532 254.819 48.8992 256.313C50.2452 257.807 52.0707 258.646 53.9741 258.646C55.8776 258.646 57.7031 257.807 59.0491 256.313C60.3951 254.819 61.1512 252.793 61.1512 250.68L61.9407 126.163L65.5292 126.641L89.6441 129.668L88.0652 145.601C87.8634 147.691 88.414 149.785 89.5971 151.427C90.7801 153.068 92.4996 154.124 94.381 154.364H95.1705C96.9448 154.376 98.6601 153.658 99.9855 152.349C101.311 151.04 102.152 149.232 102.348 147.274L103.998 131.341L186.391 141.777L187.97 158.188L152.085 162.49C151.088 162.615 150.126 162.97 149.261 163.532C148.396 164.095 147.646 164.853 147.061 165.756C146.061 167.361 145.627 169.317 145.841 171.253V345.163L60.4335 334.249V274.42C60.4335 272.307 59.6773 270.281 58.3314 268.787C56.9854 267.293 55.1599 266.453 53.2564 266.453C51.353 266.453 49.5274 267.293 48.1815 268.787C46.8355 270.281 46.0794 272.307 46.0794 274.42V332.576L19.1654 329.15L46.7971 191.568Z" stroke="white" stroke-width="6" mask="url(#path-1-outside-1_3_792)"/>
</svg>
