<svg width="406" height="406" viewBox="0 0 406 406" fill="none" xmlns="http://www.w3.org/2000/svg">
<mask id="path-1-outside-1_3_1077" maskUnits="userSpaceOnUse" x="0" y="0" width="406" height="406" fill="black">
<rect fill="white" width="406" height="406"/>
<path d="M203 92.0623C141.829 92.0623 92.0628 141.829 92.0628 203C92.0628 264.171 141.829 313.938 203 313.938C264.171 313.938 313.938 264.171 313.938 203C313.938 141.829 264.171 92.0623 203 92.0623ZM203 298.313C150.445 298.313 107.688 255.556 107.688 203C107.688 150.444 150.445 107.687 203 107.687C255.556 107.687 298.313 150.444 298.313 203C298.313 255.556 255.556 298.313 203 298.313Z"/>
<path d="M398.853 3.9125C396.3 2.55781 393.208 2.72109 390.813 4.33828C352.461 30.2531 329.562 73.3593 329.562 119.648V221.016C329.562 231.889 333.797 242.111 341.485 249.799L356.125 264.44V379.563C356.125 392.486 366.639 403 379.562 403C392.486 403 403 392.486 403 379.563V10.8125C403 7.92265 401.405 5.26875 398.853 3.9125ZM387.375 379.563C387.375 383.871 383.87 387.375 379.562 387.375C375.255 387.375 371.75 383.871 371.75 379.563V261.203C371.75 259.131 370.927 257.145 369.462 255.679L352.533 238.75C347.797 234.013 345.188 227.715 345.188 221.016V119.648C345.188 83.7258 360.72 49.9649 387.375 26.6695V379.563Z"/>
<path d="M185.076 141.041C183.383 137.073 178.79 135.23 174.823 136.923C148.313 148.241 131.183 174.177 131.183 203C131.183 207.314 134.681 210.813 138.996 210.813C143.311 210.813 146.809 207.314 146.809 203C146.809 180.446 160.213 160.15 180.959 151.294C184.926 149.6 186.77 145.01 185.076 141.041Z"/>
<path d="M203 131.184L202.606 131.185C198.291 131.214 194.816 134.735 194.846 139.049C194.874 143.347 198.367 146.81 202.657 146.81C202.675 146.81 202.693 146.81 202.711 146.81L203 146.809C207.315 146.809 210.812 143.312 210.812 138.997C210.812 134.682 207.315 131.184 203 131.184Z"/>
<path d="M311.299 100.25C297.496 85.7057 281.226 74.2619 262.94 66.2369C244.006 57.9274 223.839 53.7142 203 53.7142C179.188 53.7142 156.425 59.1564 135.345 69.8909C131.501 71.8485 129.97 76.5527 131.928 80.3975C133.886 84.2417 138.591 85.7715 142.436 83.8139C161.299 74.2097 181.675 69.3392 203 69.3392C240.028 69.3392 274.465 84.136 299.965 111.005C301.501 112.624 303.565 113.44 305.633 113.44C307.565 113.44 309.499 112.728 311.01 111.294C314.139 108.324 314.269 103.379 311.299 100.25Z"/>
<path d="M318.883 284.546C315.498 281.871 310.585 282.445 307.91 285.829C282.368 318.134 244.13 336.66 203 336.66C177.257 336.66 152.268 329.329 130.731 315.459C127.105 313.122 122.269 314.17 119.933 317.796C117.597 321.425 118.644 326.259 122.272 328.594C146.335 344.093 174.251 352.285 203 352.285C248.937 352.285 291.643 331.595 320.166 295.519C322.842 292.135 322.268 287.222 318.883 284.546Z"/>
<path d="M109.217 298.253L109.102 298.121C109.061 298.07 109.019 298.018 108.976 297.969C106.197 294.667 101.269 294.245 97.9683 297.023C94.6676 299.803 94.2442 304.731 97.0237 308.032L97.0994 308.122L97.1033 308.119C97.1862 308.223 97.2723 308.328 97.3616 308.431C98.907 310.231 101.093 311.154 103.292 311.154C105.094 311.154 106.904 310.535 108.378 309.271C111.651 306.459 112.027 301.527 109.217 298.253Z"/>
<path d="M99.8748 3C95.5603 3 92.0626 6.49766 92.0626 10.8125V95.1878H77.9935C77.9948 95.1435 78 95.1017 78 95.0567V10.8125C78 6.49766 74.5023 3 70.1872 3C65.8727 3 62.375 6.49766 62.375 10.8125V95.0567C62.375 95.1011 62.3813 95.1435 62.3813 95.1878H48.3063C48.307 95.1435 48.3125 95.1017 48.3125 95.0567V10.8125C48.3125 6.49766 44.8149 3 40.5 3C36.1851 3 32.6875 6.49766 32.6875 10.8125V95.0567C32.6875 95.1011 32.6937 95.1435 32.6937 95.1878H18.625V10.8125C18.625 6.49766 15.1273 3 10.8125 3C6.49766 3 3 6.49766 3 10.8125V106.125C3 125.289 14.6281 142.585 31.9063 150.062V379.563C31.9063 392.486 42.4203 403 55.3438 403C68.2675 403 78.7815 392.486 78.7815 379.563V150.062C96.0594 142.585 107.688 125.289 107.688 106.125V10.8125C107.688 6.49766 104.19 3 99.8748 3ZM68.7998 137.078C65.4578 138.044 63.1562 141.104 63.1562 144.583V379.563C63.1562 383.871 59.6515 387.375 55.3438 387.375C51.0359 387.375 47.5313 383.871 47.5313 379.563V144.583C47.5313 141.104 45.2305 138.044 41.8875 137.078C29.7133 133.56 20.8086 123.11 18.9781 110.812H91.7084C89.8787 123.11 80.9739 133.56 68.7998 137.078Z"/>
</mask>
<path d="M203 92.0623C141.829 92.0623 92.0628 141.829 92.0628 203C92.0628 264.171 141.829 313.938 203 313.938C264.171 313.938 313.938 264.171 313.938 203C313.938 141.829 264.171 92.0623 203 92.0623ZM203 298.313C150.445 298.313 107.688 255.556 107.688 203C107.688 150.444 150.445 107.687 203 107.687C255.556 107.687 298.313 150.444 298.313 203C298.313 255.556 255.556 298.313 203 298.313Z" stroke="white" stroke-width="6" mask="url(#path-1-outside-1_3_1077)"/>
<path d="M398.853 3.9125C396.3 2.55781 393.208 2.72109 390.813 4.33828C352.461 30.2531 329.562 73.3593 329.562 119.648V221.016C329.562 231.889 333.797 242.111 341.485 249.799L356.125 264.44V379.563C356.125 392.486 366.639 403 379.562 403C392.486 403 403 392.486 403 379.563V10.8125C403 7.92265 401.405 5.26875 398.853 3.9125ZM387.375 379.563C387.375 383.871 383.87 387.375 379.562 387.375C375.255 387.375 371.75 383.871 371.75 379.563V261.203C371.75 259.131 370.927 257.145 369.462 255.679L352.533 238.75C347.797 234.013 345.188 227.715 345.188 221.016V119.648C345.188 83.7258 360.72 49.9649 387.375 26.6695V379.563Z" stroke="white" stroke-width="6" mask="url(#path-1-outside-1_3_1077)"/>
<path d="M185.076 141.041C183.383 137.073 178.79 135.23 174.823 136.923C148.313 148.241 131.183 174.177 131.183 203C131.183 207.314 134.681 210.813 138.996 210.813C143.311 210.813 146.809 207.314 146.809 203C146.809 180.446 160.213 160.15 180.959 151.294C184.926 149.6 186.77 145.01 185.076 141.041Z" stroke="white" stroke-width="6" mask="url(#path-1-outside-1_3_1077)"/>
<path d="M203 131.184L202.606 131.185C198.291 131.214 194.816 134.735 194.846 139.049C194.874 143.347 198.367 146.81 202.657 146.81C202.675 146.81 202.693 146.81 202.711 146.81L203 146.809C207.315 146.809 210.812 143.312 210.812 138.997C210.812 134.682 207.315 131.184 203 131.184Z" stroke="white" stroke-width="6" mask="url(#path-1-outside-1_3_1077)"/>
<path d="M311.299 100.25C297.496 85.7057 281.226 74.2619 262.94 66.2369C244.006 57.9274 223.839 53.7142 203 53.7142C179.188 53.7142 156.425 59.1564 135.345 69.8909C131.501 71.8485 129.97 76.5527 131.928 80.3975C133.886 84.2417 138.591 85.7715 142.436 83.8139C161.299 74.2097 181.675 69.3392 203 69.3392C240.028 69.3392 274.465 84.136 299.965 111.005C301.501 112.624 303.565 113.44 305.633 113.44C307.565 113.44 309.499 112.728 311.01 111.294C314.139 108.324 314.269 103.379 311.299 100.25Z" stroke="white" stroke-width="6" mask="url(#path-1-outside-1_3_1077)"/>
<path d="M318.883 284.546C315.498 281.871 310.585 282.445 307.91 285.829C282.368 318.134 244.13 336.66 203 336.66C177.257 336.66 152.268 329.329 130.731 315.459C127.105 313.122 122.269 314.17 119.933 317.796C117.597 321.425 118.644 326.259 122.272 328.594C146.335 344.093 174.251 352.285 203 352.285C248.937 352.285 291.643 331.595 320.166 295.519C322.842 292.135 322.268 287.222 318.883 284.546Z" stroke="white" stroke-width="6" mask="url(#path-1-outside-1_3_1077)"/>
<path d="M109.217 298.253L109.102 298.121C109.061 298.07 109.019 298.018 108.976 297.969C106.197 294.667 101.269 294.245 97.9683 297.023C94.6676 299.803 94.2442 304.731 97.0237 308.032L97.0994 308.122L97.1033 308.119C97.1862 308.223 97.2723 308.328 97.3616 308.431C98.907 310.231 101.093 311.154 103.292 311.154C105.094 311.154 106.904 310.535 108.378 309.271C111.651 306.459 112.027 301.527 109.217 298.253Z" stroke="white" stroke-width="6" mask="url(#path-1-outside-1_3_1077)"/>
<path d="M99.8748 3C95.5603 3 92.0626 6.49766 92.0626 10.8125V95.1878H77.9935C77.9948 95.1435 78 95.1017 78 95.0567V10.8125C78 6.49766 74.5023 3 70.1872 3C65.8727 3 62.375 6.49766 62.375 10.8125V95.0567C62.375 95.1011 62.3813 95.1435 62.3813 95.1878H48.3063C48.307 95.1435 48.3125 95.1017 48.3125 95.0567V10.8125C48.3125 6.49766 44.8149 3 40.5 3C36.1851 3 32.6875 6.49766 32.6875 10.8125V95.0567C32.6875 95.1011 32.6937 95.1435 32.6937 95.1878H18.625V10.8125C18.625 6.49766 15.1273 3 10.8125 3C6.49766 3 3 6.49766 3 10.8125V106.125C3 125.289 14.6281 142.585 31.9063 150.062V379.563C31.9063 392.486 42.4203 403 55.3438 403C68.2675 403 78.7815 392.486 78.7815 379.563V150.062C96.0594 142.585 107.688 125.289 107.688 106.125V10.8125C107.688 6.49766 104.19 3 99.8748 3ZM68.7998 137.078C65.4578 138.044 63.1562 141.104 63.1562 144.583V379.563C63.1562 383.871 59.6515 387.375 55.3438 387.375C51.0359 387.375 47.5313 383.871 47.5313 379.563V144.583C47.5313 141.104 45.2305 138.044 41.8875 137.078C29.7133 133.56 20.8086 123.11 18.9781 110.812H91.7084C89.8787 123.11 80.9739 133.56 68.7998 137.078Z" stroke="white" stroke-width="6" mask="url(#path-1-outside-1_3_1077)"/>
</svg>
