<svg width="406" height="406" viewBox="0 0 406 406" fill="none" xmlns="http://www.w3.org/2000/svg">
<mask id="path-1-outside-1_3_1078" maskUnits="userSpaceOnUse" x="-1" y="0" width="407" height="406" fill="black">
<rect fill="white" x="-1" width="407" height="406"/>
<path d="M397.142 252.619H159.369L147.17 178.405C156.535 179.286 164.52 186.375 166.116 196.081C167.428 204.058 178.837 201.138 177.676 194.174C172.996 165.726 215.156 160.703 219.527 187.298C220.677 194.288 232.4 193.403 231.089 185.397C226.79 159.254 266.48 151.403 272.623 176.969C273.097 186.383 286.19 183.919 284.139 174.748C277.64 138.192 257.503 106.208 227.283 84.5187C196.781 62.6257 159.629 53.8343 122.58 59.7038C122.546 59.7085 122.512 59.714 122.492 59.7171L122.307 59.7452C122.301 59.746 122.295 59.7476 122.29 59.7483C122.158 59.7694 122.026 59.7866 121.894 59.8085C121.887 59.8093 121.88 59.8101 121.873 59.8116C121.834 59.8171 121.79 59.8241 121.754 59.8296C121.753 59.8296 121.752 59.8296 121.751 59.8304C121.748 59.8312 121.745 59.8312 121.742 59.8319C44.6868 72.5022 -7.69439 145.512 4.97502 222.581C6.20837 230.083 18.7278 228.344 17.4421 220.53C15.5651 209.111 23.5097 198.037 34.927 196.16C46.0631 194.327 57.4797 202.615 59.2926 213.648C60.5041 221.013 72.1651 219.721 70.8544 211.747C66.6091 185.922 105.329 177.298 112.239 202.726C114.522 211.133 125.261 211.976 124.118 201.898C123.174 193.604 128.364 184.252 135.654 180.576L147.497 252.618H8.93675C5.70144 252.618 3.07851 255.241 3.07851 258.477C3.07851 261.713 5.70144 264.337 8.93675 264.337H149.422L155.483 301.208C143.721 293.083 131.397 285.712 117.877 281.119C98.3616 274.488 76.1479 274.445 55.3293 280.998C34.5083 287.551 16.3275 300.306 4.13612 316.915C2.22165 319.523 2.78404 323.191 5.39134 325.105C8.00021 327.02 11.6659 326.458 13.5804 323.85C24.3072 309.235 40.383 297.987 58.845 292.176C77.3063 286.366 96.9329 286.38 114.108 292.215C132.302 298.397 148.881 310.633 164.913 322.466C187.511 339.145 210.879 356.393 239.797 357.819C241.079 357.882 242.354 357.912 243.626 357.912C259.685 357.912 274.823 353.064 287.893 348.441C290.944 347.362 292.542 344.015 291.463 340.964C290.384 337.912 287.037 336.313 283.987 337.394C270.937 342.01 255.732 346.87 240.374 346.115C214.989 344.862 194.045 329.403 171.87 313.037C170.855 312.287 169.838 311.537 168.818 310.787C168.829 310.415 168.807 310.036 168.745 309.655L161.295 264.337H397.142C400.377 264.337 403 261.713 403 258.477C403 255.241 400.377 252.619 397.142 252.619ZM161.323 170.84C148.087 163.375 131.008 166.055 120.726 177.451C117.55 152.049 116.137 128.351 116.707 109.119C117.554 80.5405 122.562 72.0577 124.246 71.3077C124.248 71.3077 124.249 71.3077 124.25 71.3069C126.148 71.4929 133.606 77.9546 143.551 104.754C150.269 122.857 156.532 145.851 161.663 171.026C161.55 170.962 161.435 170.903 161.323 170.84ZM173.338 169.663C167.882 142.669 161.142 118.089 153.88 98.9319C149.537 87.4749 145.175 78.4148 140.903 71.9663C154.318 74.9632 167.801 83.7913 180.096 97.8749C194.418 114.281 205.83 136.276 213.128 161.189C207.015 158.167 199.962 157.143 193.26 158.245C185.151 159.58 178.226 163.794 173.338 169.663ZM265.628 151.983C251.729 145.644 234.787 149.983 225.617 162.323C214.507 121.32 193.286 88.7108 168.483 71.8007C187.003 75.2335 204.696 82.7304 220.453 94.0397C241.081 108.846 256.587 128.882 265.628 151.983ZM38.3857 184.157C29.9897 184.157 20.7766 187.999 14.9231 193.959C16.8735 148.75 42.4794 107.978 81.2789 86.2124C74.8833 94.6765 69.468 104.933 65.3031 116.732C62.7817 123.876 73.8296 127.777 76.3518 120.633C83.698 99.8233 95.1231 84.5671 108.805 76.7483C106.76 84.2101 105.529 94.1757 105.061 106.826C104.3 127.38 105.793 152.959 109.295 180.429C96.0026 172.049 78.3764 174.331 67.6785 185.879C67.0958 172.823 67.7488 160.1 69.6375 147.859C70.7927 140.373 59.2153 138.583 58.0584 146.071C55.9065 160.012 55.2676 174.519 56.1315 189.391C50.9426 186.06 44.8181 184.157 38.3857 184.157Z"/>
<path d="M338.074 100.388C355.962 100.388 370.516 85.8319 370.516 67.939C370.516 50.046 355.963 35.4897 338.074 35.4897C320.184 35.4897 305.631 50.046 305.631 67.939C305.631 85.8319 320.185 100.388 338.074 100.388ZM338.074 47.2093C349.502 47.2093 358.8 56.5085 358.8 67.9397C358.8 79.371 349.503 88.6702 338.074 88.6702C326.644 88.6702 317.347 79.371 317.347 67.9397C317.347 56.5085 326.645 47.2093 338.074 47.2093Z"/>
<path d="M338.074 28.5922C341.309 28.5922 343.932 25.9688 343.932 22.7328V8.85937C343.932 5.62344 341.309 3 338.074 3C334.838 3 332.215 5.62344 332.215 8.85937V22.7328C332.215 25.9688 334.838 28.5922 338.074 28.5922Z"/>
<path d="M332.215 113.145V127.019C332.215 130.255 334.838 132.878 338.074 132.878C341.309 132.878 343.932 130.255 343.932 127.019V113.145C343.932 109.909 341.309 107.286 338.074 107.286C334.838 107.286 332.215 109.909 332.215 113.145Z"/>
<path d="M370.033 41.8329C371.532 41.8329 373.032 41.261 374.175 40.1165L383.983 30.3063C386.271 28.018 386.271 24.3079 383.983 22.0204C381.696 19.7321 377.986 19.7321 375.699 22.0204L365.891 31.8305C363.603 34.1188 363.603 37.829 365.891 40.1165C367.034 41.261 368.534 41.8329 370.033 41.8329Z"/>
<path d="M301.972 95.7613L292.164 105.571C289.876 107.86 289.876 111.57 292.164 113.857C293.307 115.001 294.807 115.574 296.306 115.574C297.805 115.574 299.304 115.002 300.448 113.857L310.256 104.047C312.544 101.759 312.544 98.0488 310.256 95.7613C307.969 93.473 304.26 93.473 301.972 95.7613Z"/>
<path d="M377.413 67.9393C377.413 71.1752 380.036 73.7986 383.271 73.7986H397.142C400.377 73.7986 403 71.1752 403 67.9393C403 64.7033 400.377 62.0799 397.142 62.0799H383.271C380.036 62.0799 377.413 64.7033 377.413 67.9393Z"/>
<path d="M279.005 73.7986H292.876C296.111 73.7986 298.734 71.1752 298.734 67.9393C298.734 64.7033 296.111 62.0799 292.876 62.0799H279.005C275.77 62.0799 273.147 64.7033 273.147 67.9393C273.147 71.1752 275.77 73.7986 279.005 73.7986Z"/>
<path d="M365.891 95.7613C363.603 98.0496 363.603 101.759 365.891 104.047L375.699 113.857C376.843 115.002 378.342 115.574 379.841 115.574C381.34 115.574 382.84 115.002 383.983 113.857C386.271 111.569 386.271 107.86 383.983 105.571L374.175 95.7613C371.888 93.473 368.179 93.473 365.891 95.7613Z"/>
<path d="M301.972 40.1168C303.115 41.2613 304.615 41.8332 306.114 41.8332C307.613 41.8332 309.113 41.2613 310.256 40.1168C312.544 37.8285 312.544 34.1183 310.256 31.8308L300.448 22.0207C298.16 19.7316 294.451 19.7324 292.164 22.0207C289.876 24.3089 289.876 28.0191 292.164 30.3066L301.972 40.1168Z"/>
<path d="M29.8382 335.534C22.299 335.534 22.2865 347.252 29.8382 347.252C37.3773 347.252 37.3898 335.534 29.8382 335.534Z"/>
<path d="M110.726 368.24C103.187 368.24 103.175 379.959 110.726 379.959C118.265 379.959 118.278 368.24 110.726 368.24Z"/>
<path d="M131.107 323.918C123.568 323.918 123.555 335.637 131.107 335.637C138.646 335.637 138.658 323.918 131.107 323.918Z"/>
<path d="M286.363 391.281C278.824 391.281 278.812 403 286.363 403C293.902 403 293.915 391.281 286.363 391.281Z"/>
<path d="M355.839 358.696C348.3 358.696 348.287 370.415 355.839 370.415C363.378 370.415 363.39 358.696 355.839 358.696Z"/>
<path d="M230.246 304.746C227.011 304.746 224.388 307.37 224.388 310.606C224.388 313.842 227.011 316.465 230.246 316.465H275.329C278.564 316.465 281.187 313.842 281.187 310.606C281.187 307.37 278.564 304.746 275.329 304.746H230.246Z"/>
<path d="M370.516 286.646C370.516 283.41 367.894 280.787 364.658 280.787H263.899C260.664 280.787 258.041 283.41 258.041 286.646C258.041 289.882 260.664 292.505 263.899 292.505H364.658C367.894 292.505 370.516 289.883 370.516 286.646Z"/>
<path d="M400.785 341.615C378.438 322.858 352.222 317.497 320.636 325.229C317.494 325.998 315.569 329.169 316.339 332.313C317.108 335.457 320.28 337.382 323.422 336.612C351.126 329.83 373.967 334.404 393.253 350.592C394.351 351.513 395.687 351.963 397.016 351.963C398.688 351.963 400.348 351.251 401.506 349.87C403.586 347.392 403.263 343.696 400.785 341.615Z"/>
</mask>
<path d="M397.142 252.619H159.369L147.17 178.405C156.535 179.286 164.52 186.375 166.116 196.081C167.428 204.058 178.837 201.138 177.676 194.174C172.996 165.726 215.156 160.703 219.527 187.298C220.677 194.288 232.4 193.403 231.089 185.397C226.79 159.254 266.48 151.403 272.623 176.969C273.097 186.383 286.19 183.919 284.139 174.748C277.64 138.192 257.503 106.208 227.283 84.5187C196.781 62.6257 159.629 53.8343 122.58 59.7038C122.546 59.7085 122.512 59.714 122.492 59.7171L122.307 59.7452C122.301 59.746 122.295 59.7476 122.29 59.7483C122.158 59.7694 122.026 59.7866 121.894 59.8085C121.887 59.8093 121.88 59.8101 121.873 59.8116C121.834 59.8171 121.79 59.8241 121.754 59.8296C121.753 59.8296 121.752 59.8296 121.751 59.8304C121.748 59.8312 121.745 59.8312 121.742 59.8319C44.6868 72.5022 -7.69439 145.512 4.97502 222.581C6.20837 230.083 18.7278 228.344 17.4421 220.53C15.5651 209.111 23.5097 198.037 34.927 196.16C46.0631 194.327 57.4797 202.615 59.2926 213.648C60.5041 221.013 72.1651 219.721 70.8544 211.747C66.6091 185.922 105.329 177.298 112.239 202.726C114.522 211.133 125.261 211.976 124.118 201.898C123.174 193.604 128.364 184.252 135.654 180.576L147.497 252.618H8.93675C5.70144 252.618 3.07851 255.241 3.07851 258.477C3.07851 261.713 5.70144 264.337 8.93675 264.337H149.422L155.483 301.208C143.721 293.083 131.397 285.712 117.877 281.119C98.3616 274.488 76.1479 274.445 55.3293 280.998C34.5083 287.551 16.3275 300.306 4.13612 316.915C2.22165 319.523 2.78404 323.191 5.39134 325.105C8.00021 327.02 11.6659 326.458 13.5804 323.85C24.3072 309.235 40.383 297.987 58.845 292.176C77.3063 286.366 96.9329 286.38 114.108 292.215C132.302 298.397 148.881 310.633 164.913 322.466C187.511 339.145 210.879 356.393 239.797 357.819C241.079 357.882 242.354 357.912 243.626 357.912C259.685 357.912 274.823 353.064 287.893 348.441C290.944 347.362 292.542 344.015 291.463 340.964C290.384 337.912 287.037 336.313 283.987 337.394C270.937 342.01 255.732 346.87 240.374 346.115C214.989 344.862 194.045 329.403 171.87 313.037C170.855 312.287 169.838 311.537 168.818 310.787C168.829 310.415 168.807 310.036 168.745 309.655L161.295 264.337H397.142C400.377 264.337 403 261.713 403 258.477C403 255.241 400.377 252.619 397.142 252.619ZM161.323 170.84C148.087 163.375 131.008 166.055 120.726 177.451C117.55 152.049 116.137 128.351 116.707 109.119C117.554 80.5405 122.562 72.0577 124.246 71.3077C124.248 71.3077 124.249 71.3077 124.25 71.3069C126.148 71.4929 133.606 77.9546 143.551 104.754C150.269 122.857 156.532 145.851 161.663 171.026C161.55 170.962 161.435 170.903 161.323 170.84ZM173.338 169.663C167.882 142.669 161.142 118.089 153.88 98.9319C149.537 87.4749 145.175 78.4148 140.903 71.9663C154.318 74.9632 167.801 83.7913 180.096 97.8749C194.418 114.281 205.83 136.276 213.128 161.189C207.015 158.167 199.962 157.143 193.26 158.245C185.151 159.58 178.226 163.794 173.338 169.663ZM265.628 151.983C251.729 145.644 234.787 149.983 225.617 162.323C214.507 121.32 193.286 88.7108 168.483 71.8007C187.003 75.2335 204.696 82.7304 220.453 94.0397C241.081 108.846 256.587 128.882 265.628 151.983ZM38.3857 184.157C29.9897 184.157 20.7766 187.999 14.9231 193.959C16.8735 148.75 42.4794 107.978 81.2789 86.2124C74.8833 94.6765 69.468 104.933 65.3031 116.732C62.7817 123.876 73.8296 127.777 76.3518 120.633C83.698 99.8233 95.1231 84.5671 108.805 76.7483C106.76 84.2101 105.529 94.1757 105.061 106.826C104.3 127.38 105.793 152.959 109.295 180.429C96.0026 172.049 78.3764 174.331 67.6785 185.879C67.0958 172.823 67.7488 160.1 69.6375 147.859C70.7927 140.373 59.2153 138.583 58.0584 146.071C55.9065 160.012 55.2676 174.519 56.1315 189.391C50.9426 186.06 44.8181 184.157 38.3857 184.157Z" stroke="white" stroke-width="6" mask="url(#path-1-outside-1_3_1078)"/>
<path d="M338.074 100.388C355.962 100.388 370.516 85.8319 370.516 67.939C370.516 50.046 355.963 35.4897 338.074 35.4897C320.184 35.4897 305.631 50.046 305.631 67.939C305.631 85.8319 320.185 100.388 338.074 100.388ZM338.074 47.2093C349.502 47.2093 358.8 56.5085 358.8 67.9397C358.8 79.371 349.503 88.6702 338.074 88.6702C326.644 88.6702 317.347 79.371 317.347 67.9397C317.347 56.5085 326.645 47.2093 338.074 47.2093Z" stroke="white" stroke-width="6" mask="url(#path-1-outside-1_3_1078)"/>
<path d="M338.074 28.5922C341.309 28.5922 343.932 25.9688 343.932 22.7328V8.85937C343.932 5.62344 341.309 3 338.074 3C334.838 3 332.215 5.62344 332.215 8.85937V22.7328C332.215 25.9688 334.838 28.5922 338.074 28.5922Z" stroke="white" stroke-width="6" mask="url(#path-1-outside-1_3_1078)"/>
<path d="M332.215 113.145V127.019C332.215 130.255 334.838 132.878 338.074 132.878C341.309 132.878 343.932 130.255 343.932 127.019V113.145C343.932 109.909 341.309 107.286 338.074 107.286C334.838 107.286 332.215 109.909 332.215 113.145Z" stroke="white" stroke-width="6" mask="url(#path-1-outside-1_3_1078)"/>
<path d="M370.033 41.8329C371.532 41.8329 373.032 41.261 374.175 40.1165L383.983 30.3063C386.271 28.018 386.271 24.3079 383.983 22.0204C381.696 19.7321 377.986 19.7321 375.699 22.0204L365.891 31.8305C363.603 34.1188 363.603 37.829 365.891 40.1165C367.034 41.261 368.534 41.8329 370.033 41.8329Z" stroke="white" stroke-width="6" mask="url(#path-1-outside-1_3_1078)"/>
<path d="M301.972 95.7613L292.164 105.571C289.876 107.86 289.876 111.57 292.164 113.857C293.307 115.001 294.807 115.574 296.306 115.574C297.805 115.574 299.304 115.002 300.448 113.857L310.256 104.047C312.544 101.759 312.544 98.0488 310.256 95.7613C307.969 93.473 304.26 93.473 301.972 95.7613Z" stroke="white" stroke-width="6" mask="url(#path-1-outside-1_3_1078)"/>
<path d="M377.413 67.9393C377.413 71.1752 380.036 73.7986 383.271 73.7986H397.142C400.377 73.7986 403 71.1752 403 67.9393C403 64.7033 400.377 62.0799 397.142 62.0799H383.271C380.036 62.0799 377.413 64.7033 377.413 67.9393Z" stroke="white" stroke-width="6" mask="url(#path-1-outside-1_3_1078)"/>
<path d="M279.005 73.7986H292.876C296.111 73.7986 298.734 71.1752 298.734 67.9393C298.734 64.7033 296.111 62.0799 292.876 62.0799H279.005C275.77 62.0799 273.147 64.7033 273.147 67.9393C273.147 71.1752 275.77 73.7986 279.005 73.7986Z" stroke="white" stroke-width="6" mask="url(#path-1-outside-1_3_1078)"/>
<path d="M365.891 95.7613C363.603 98.0496 363.603 101.759 365.891 104.047L375.699 113.857C376.843 115.002 378.342 115.574 379.841 115.574C381.34 115.574 382.84 115.002 383.983 113.857C386.271 111.569 386.271 107.86 383.983 105.571L374.175 95.7613C371.888 93.473 368.179 93.473 365.891 95.7613Z" stroke="white" stroke-width="6" mask="url(#path-1-outside-1_3_1078)"/>
<path d="M301.972 40.1168C303.115 41.2613 304.615 41.8332 306.114 41.8332C307.613 41.8332 309.113 41.2613 310.256 40.1168C312.544 37.8285 312.544 34.1183 310.256 31.8308L300.448 22.0207C298.16 19.7316 294.451 19.7324 292.164 22.0207C289.876 24.3089 289.876 28.0191 292.164 30.3066L301.972 40.1168Z" stroke="white" stroke-width="6" mask="url(#path-1-outside-1_3_1078)"/>
<path d="M29.8382 335.534C22.299 335.534 22.2865 347.252 29.8382 347.252C37.3773 347.252 37.3898 335.534 29.8382 335.534Z" stroke="white" stroke-width="6" mask="url(#path-1-outside-1_3_1078)"/>
<path d="M110.726 368.24C103.187 368.24 103.175 379.959 110.726 379.959C118.265 379.959 118.278 368.24 110.726 368.24Z" stroke="white" stroke-width="6" mask="url(#path-1-outside-1_3_1078)"/>
<path d="M131.107 323.918C123.568 323.918 123.555 335.637 131.107 335.637C138.646 335.637 138.658 323.918 131.107 323.918Z" stroke="white" stroke-width="6" mask="url(#path-1-outside-1_3_1078)"/>
<path d="M286.363 391.281C278.824 391.281 278.812 403 286.363 403C293.902 403 293.915 391.281 286.363 391.281Z" stroke="white" stroke-width="6" mask="url(#path-1-outside-1_3_1078)"/>
<path d="M355.839 358.696C348.3 358.696 348.287 370.415 355.839 370.415C363.378 370.415 363.39 358.696 355.839 358.696Z" stroke="white" stroke-width="6" mask="url(#path-1-outside-1_3_1078)"/>
<path d="M230.246 304.746C227.011 304.746 224.388 307.37 224.388 310.606C224.388 313.842 227.011 316.465 230.246 316.465H275.329C278.564 316.465 281.187 313.842 281.187 310.606C281.187 307.37 278.564 304.746 275.329 304.746H230.246Z" stroke="white" stroke-width="6" mask="url(#path-1-outside-1_3_1078)"/>
<path d="M370.516 286.646C370.516 283.41 367.894 280.787 364.658 280.787H263.899C260.664 280.787 258.041 283.41 258.041 286.646C258.041 289.882 260.664 292.505 263.899 292.505H364.658C367.894 292.505 370.516 289.883 370.516 286.646Z" stroke="white" stroke-width="6" mask="url(#path-1-outside-1_3_1078)"/>
<path d="M400.785 341.615C378.438 322.858 352.222 317.497 320.636 325.229C317.494 325.998 315.569 329.169 316.339 332.313C317.108 335.457 320.28 337.382 323.422 336.612C351.126 329.83 373.967 334.404 393.253 350.592C394.351 351.513 395.687 351.963 397.016 351.963C398.688 351.963 400.348 351.251 401.506 349.87C403.586 347.392 403.263 343.696 400.785 341.615Z" stroke="white" stroke-width="6" mask="url(#path-1-outside-1_3_1078)"/>
</svg>
